<?xml version="1.0" encoding="UTF-8" standalone="no"?>
<!DOCTYPE svg PUBLIC "-//W3C//DTD SVG 1.1//EN"
 "http://www.w3.org/Graphics/SVG/1.1/DTD/svg11.dtd">
<!-- Generated by graphviz version 2.50.0 (0)
 -->
<!-- Title: DFA Pages: 1 -->
<svg width="1041pt" height="297pt"
 viewBox="0.00 0.00 1041.00 297.00" xmlns="http://www.w3.org/2000/svg" xmlns:xlink="http://www.w3.org/1999/xlink">
<g id="graph0" class="graph" transform="scale(1 1) rotate(0) translate(4 293)">
<title>DFA</title>
<polygon fill="white" stroke="transparent" points="-4,4 -4,-293 1037,-293 1037,4 -4,4"/>
<!-- I -->
<!-- S0 -->
<g id="node2" class="node">
<title>S0</title>
<ellipse fill="red" stroke="red" cx="113" cy="-22" rx="18" ry="18"/>
<ellipse fill="none" stroke="red" cx="113" cy="-22" rx="22" ry="22"/>
</g>
<!-- I&#45;&gt;S0 -->
<g id="edge1" class="edge">
<title>I&#45;&gt;S0</title>
<path fill="none" stroke="darkgreen" stroke-width="4" d="M54.12,-22C62.54,-22 71.96,-22 80.72,-22"/>
<polygon fill="darkgreen" stroke="darkgreen" stroke-width="4" points="80.96,-25.5 90.96,-22 80.96,-18.5 80.96,-25.5"/>
</g>
<!-- S1 -->
<g id="node3" class="node">
<title>S1</title>
<ellipse fill="none" stroke="black" cx="199" cy="-86" rx="18" ry="18"/>
</g>
<!-- S0&#45;&gt;S1 -->
<g id="edge23" class="edge">
<title>S0&#45;&gt;S1</title>
<path fill="none" stroke="black" d="M131,-34.95C143.94,-44.81 161.86,-58.47 175.91,-69.17"/>
<polygon fill="black" stroke="black" points="174.01,-72.12 184.08,-75.4 178.25,-66.55 174.01,-72.12"/>
<text text-anchor="middle" x="158" y="-61.8" font-family="Times New Roman,serif" font-size="14.00">B</text>
</g>
<!-- S2 -->
<g id="node4" class="node">
<title>S2</title>
<ellipse fill="none" stroke="black" cx="279" cy="-157" rx="18" ry="18"/>
</g>
<!-- S1&#45;&gt;S2 -->
<g id="edge22" class="edge">
<title>S1&#45;&gt;S2</title>
<path fill="none" stroke="black" d="M212.88,-97.72C224.96,-108.72 243.23,-125.35 257.35,-138.2"/>
<polygon fill="black" stroke="black" points="255.35,-141.12 265.1,-145.26 260.06,-135.94 255.35,-141.12"/>
<text text-anchor="middle" x="239" y="-126.8" font-family="Times New Roman,serif" font-size="14.00">F</text>
</g>
<!-- S3 -->
<g id="node5" class="node">
<title>S3</title>
<ellipse fill="none" stroke="black" cx="361" cy="-157" rx="18" ry="18"/>
</g>
<!-- S2&#45;&gt;S3 -->
<g id="edge21" class="edge">
<title>S2&#45;&gt;S3</title>
<path fill="none" stroke="black" d="M297.36,-157C307.7,-157 321.06,-157 332.78,-157"/>
<polygon fill="black" stroke="black" points="332.95,-160.5 342.95,-157 332.95,-153.5 332.95,-160.5"/>
<text text-anchor="middle" x="320" y="-160.8" font-family="Times New Roman,serif" font-size="14.00">C</text>
</g>
<!-- S4 -->
<g id="node6" class="node">
<title>S4</title>
<ellipse fill="none" stroke="black" cx="443" cy="-157" rx="18" ry="18"/>
</g>
<!-- S3&#45;&gt;S4 -->
<g id="edge20" class="edge">
<title>S3&#45;&gt;S4</title>
<path fill="none" stroke="black" d="M379.36,-157C389.7,-157 403.06,-157 414.78,-157"/>
<polygon fill="black" stroke="black" points="414.95,-160.5 424.95,-157 414.95,-153.5 414.95,-160.5"/>
<text text-anchor="middle" x="402" y="-160.8" font-family="Times New Roman,serif" font-size="14.00">G</text>
</g>
<!-- S5 -->
<g id="node7" class="node">
<title>S5</title>
<ellipse fill="none" stroke="black" cx="525" cy="-157" rx="18" ry="18"/>
</g>
<!-- S4&#45;&gt;S5 -->
<g id="edge19" class="edge">
<title>S4&#45;&gt;S5</title>
<path fill="none" stroke="black" d="M461.36,-157C471.7,-157 485.06,-157 496.78,-157"/>
<polygon fill="black" stroke="black" points="496.95,-160.5 506.95,-157 496.95,-153.5 496.95,-160.5"/>
<text text-anchor="middle" x="484" y="-160.8" font-family="Times New Roman,serif" font-size="14.00">D</text>
</g>
<!-- S6 -->
<g id="node8" class="node">
<title>S6</title>
<ellipse fill="none" stroke="black" cx="607" cy="-157" rx="18" ry="18"/>
</g>
<!-- S5&#45;&gt;S6 -->
<g id="edge18" class="edge">
<title>S5&#45;&gt;S6</title>
<path fill="none" stroke="black" d="M543.36,-157C553.7,-157 567.06,-157 578.78,-157"/>
<polygon fill="black" stroke="black" points="578.95,-160.5 588.95,-157 578.95,-153.5 578.95,-160.5"/>
<text text-anchor="middle" x="566" y="-160.8" font-family="Times New Roman,serif" font-size="14.00">G</text>
</g>
<!-- S7 -->
<g id="node9" class="node">
<title>S7</title>
<ellipse fill="none" stroke="black" cx="689" cy="-157" rx="18" ry="18"/>
</g>
<!-- S6&#45;&gt;S7 -->
<g id="edge17" class="edge">
<title>S6&#45;&gt;S7</title>
<path fill="none" stroke="black" d="M625.36,-157C635.7,-157 649.06,-157 660.78,-157"/>
<polygon fill="black" stroke="black" points="660.95,-160.5 670.95,-157 660.95,-153.5 660.95,-160.5"/>
<text text-anchor="middle" x="648" y="-160.8" font-family="Times New Roman,serif" font-size="14.00">C</text>
</g>
<!-- S8 -->
<g id="node10" class="node">
<title>S8</title>
<ellipse fill="none" stroke="black" cx="769" cy="-157" rx="18" ry="18"/>
</g>
<!-- S7&#45;&gt;S8 -->
<g id="edge16" class="edge">
<title>S7&#45;&gt;S8</title>
<path fill="none" stroke="black" d="M707.31,-157C717.11,-157 729.58,-157 740.67,-157"/>
<polygon fill="black" stroke="black" points="740.74,-160.5 750.74,-157 740.74,-153.5 740.74,-160.5"/>
<text text-anchor="middle" x="729" y="-160.8" font-family="Times New Roman,serif" font-size="14.00">F</text>
</g>
<!-- S9 -->
<g id="node11" class="node">
<title>S9</title>
<ellipse fill="none" stroke="black" cx="851" cy="-211" rx="18" ry="18"/>
</g>
<!-- S8&#45;&gt;S9 -->
<g id="edge6" class="edge">
<title>S8&#45;&gt;S9</title>
<path fill="none" stroke="black" d="M784.3,-166.65C796.17,-174.67 813.28,-186.22 827.06,-195.52"/>
<polygon fill="black" stroke="black" points="825.31,-198.55 835.55,-201.25 829.22,-192.75 825.31,-198.55"/>
<text text-anchor="middle" x="810" y="-190.8" font-family="Times New Roman,serif" font-size="14.00">B</text>
</g>
<!-- S12 -->
<g id="node14" class="node">
<title>S12</title>
<ellipse fill="none" stroke="black" cx="851" cy="-76" rx="18" ry="18"/>
</g>
<!-- S8&#45;&gt;S12 -->
<g id="edge10" class="edge">
<title>S8&#45;&gt;S12</title>
<path fill="none" stroke="black" d="M782.15,-144.7C794.95,-131.73 815.32,-111.12 830.4,-95.85"/>
<polygon fill="black" stroke="black" points="833.2,-97.99 837.74,-88.42 828.22,-93.07 833.2,-97.99"/>
<text text-anchor="middle" x="810" y="-124.8" font-family="Times New Roman,serif" font-size="14.00">C</text>
</g>
<!-- S15 -->
<g id="node17" class="node">
<title>S15</title>
<ellipse fill="none" stroke="black" cx="851" cy="-148" rx="18" ry="18"/>
</g>
<!-- S8&#45;&gt;S15 -->
<g id="edge15" class="edge">
<title>S8&#45;&gt;S15</title>
<path fill="none" stroke="black" d="M786.97,-155.09C797.36,-153.92 810.9,-152.4 822.77,-151.06"/>
<polygon fill="black" stroke="black" points="823.51,-154.5 833.06,-149.91 822.73,-147.55 823.51,-154.5"/>
<text text-anchor="middle" x="810" y="-156.8" font-family="Times New Roman,serif" font-size="14.00">A</text>
</g>
<!-- S10 -->
<g id="node12" class="node">
<title>S10</title>
<ellipse fill="none" stroke="black" cx="933" cy="-262" rx="18" ry="18"/>
</g>
<!-- S9&#45;&gt;S10 -->
<g id="edge5" class="edge">
<title>S9&#45;&gt;S10</title>
<path fill="none" stroke="black" d="M866.67,-220.35C878.4,-227.83 895.06,-238.45 908.63,-247.1"/>
<polygon fill="black" stroke="black" points="907.11,-250.28 917.42,-252.71 910.87,-244.38 907.11,-250.28"/>
<text text-anchor="middle" x="892" y="-242.8" font-family="Times New Roman,serif" font-size="14.00">A</text>
</g>
<!-- S10&#45;&gt;S2 -->
<g id="edge2" class="edge">
<title>S10&#45;&gt;S2</title>
<path fill="none" stroke="black" d="M915.25,-266C899.14,-269.49 874.05,-274 852,-274 360,-274 360,-274 360,-274 316.85,-274 295.28,-219.1 285.97,-184.51"/>
<polygon fill="black" stroke="black" points="289.29,-183.37 283.46,-174.52 282.5,-185.07 289.29,-183.37"/>
<text text-anchor="middle" x="607" y="-277.8" font-family="Times New Roman,serif" font-size="14.00">F</text>
</g>
<!-- S11 -->
<g id="node13" class="node">
<title>S11</title>
<ellipse fill="none" stroke="black" cx="1015" cy="-225" rx="18" ry="18"/>
</g>
<!-- S10&#45;&gt;S11 -->
<g id="edge4" class="edge">
<title>S10&#45;&gt;S11</title>
<path fill="none" stroke="black" d="M949.81,-254.69C960.98,-249.52 976.19,-242.49 989.01,-236.56"/>
<polygon fill="black" stroke="black" points="990.62,-239.67 998.23,-232.29 987.68,-233.32 990.62,-239.67"/>
<text text-anchor="middle" x="974" y="-248.8" font-family="Times New Roman,serif" font-size="14.00">E</text>
</g>
<!-- S11&#45;&gt;S9 -->
<g id="edge3" class="edge">
<title>S11&#45;&gt;S9</title>
<path fill="none" stroke="black" d="M996.71,-223.51C968.54,-221.07 912.51,-216.23 879.04,-213.34"/>
<polygon fill="black" stroke="black" points="879.29,-209.85 869.03,-212.47 878.69,-216.82 879.29,-209.85"/>
<text text-anchor="middle" x="933" y="-222.8" font-family="Times New Roman,serif" font-size="14.00">D</text>
</g>
<!-- S13 -->
<g id="node15" class="node">
<title>S13</title>
<ellipse fill="none" stroke="black" cx="933" cy="-52" rx="18" ry="18"/>
</g>
<!-- S12&#45;&gt;S13 -->
<g id="edge9" class="edge">
<title>S12&#45;&gt;S13</title>
<path fill="none" stroke="black" d="M868.58,-71.03C879.3,-67.81 893.5,-63.55 905.74,-59.88"/>
<polygon fill="black" stroke="black" points="906.87,-63.19 915.45,-56.97 904.86,-56.49 906.87,-63.19"/>
<text text-anchor="middle" x="892" y="-68.8" font-family="Times New Roman,serif" font-size="14.00">D</text>
</g>
<!-- S14 -->
<g id="node16" class="node">
<title>S14</title>
<ellipse fill="none" stroke="black" cx="1015" cy="-29" rx="18" ry="18"/>
</g>
<!-- S13&#45;&gt;S14 -->
<g id="edge8" class="edge">
<title>S13&#45;&gt;S14</title>
<path fill="none" stroke="black" d="M950.58,-47.23C961.3,-44.15 975.5,-40.07 987.74,-36.55"/>
<polygon fill="black" stroke="black" points="988.8,-39.89 997.45,-33.76 986.87,-33.16 988.8,-39.89"/>
<text text-anchor="middle" x="974" y="-45.8" font-family="Times New Roman,serif" font-size="14.00">D</text>
</g>
<!-- S14&#45;&gt;S0 -->
<g id="edge7" class="edge">
<title>S14&#45;&gt;S0</title>
<path fill="none" stroke="black" d="M998.44,-21.72C982.59,-14.98 957.12,-6 934,-6 198,-6 198,-6 198,-6 179.85,-6 159.89,-9.65 143.98,-13.46"/>
<polygon fill="black" stroke="black" points="142.99,-10.1 134.16,-15.95 144.72,-16.88 142.99,-10.1"/>
<text text-anchor="middle" x="566" y="-9.8" font-family="Times New Roman,serif" font-size="14.00">C</text>
</g>
<!-- S15&#45;&gt;S1 -->
<g id="edge14" class="edge">
<title>S15&#45;&gt;S1</title>
<path fill="none" stroke="black" d="M840.28,-133.31C826.84,-114.97 800.75,-86 770,-86 278,-86 278,-86 278,-86 261.11,-86 242.16,-86 227.17,-86"/>
<polygon fill="black" stroke="black" points="227.04,-82.5 217.04,-86 227.04,-89.5 227.04,-82.5"/>
<text text-anchor="middle" x="525" y="-89.8" font-family="Times New Roman,serif" font-size="14.00">B</text>
</g>
<!-- S16 -->
<g id="node18" class="node">
<title>S16</title>
<ellipse fill="none" stroke="black" cx="933" cy="-106" rx="18" ry="18"/>
</g>
<!-- S15&#45;&gt;S16 -->
<g id="edge13" class="edge">
<title>S15&#45;&gt;S16</title>
<path fill="none" stroke="black" d="M867.42,-139.9C878.82,-133.92 894.57,-125.65 907.66,-118.78"/>
<polygon fill="black" stroke="black" points="909.4,-121.82 916.62,-114.07 906.14,-115.62 909.4,-121.82"/>
<text text-anchor="middle" x="892" y="-132.8" font-family="Times New Roman,serif" font-size="14.00">D</text>
</g>
<!-- S17 -->
<g id="node19" class="node">
<title>S17</title>
<ellipse fill="none" stroke="black" cx="1015" cy="-146" rx="18" ry="18"/>
</g>
<!-- S16&#45;&gt;S17 -->
<g id="edge12" class="edge">
<title>S16&#45;&gt;S17</title>
<path fill="none" stroke="black" d="M949.42,-113.71C960.82,-119.41 976.57,-127.29 989.66,-133.83"/>
<polygon fill="black" stroke="black" points="988.11,-136.97 998.62,-138.31 991.24,-130.71 988.11,-136.97"/>
<text text-anchor="middle" x="974" y="-131.8" font-family="Times New Roman,serif" font-size="14.00">E</text>
</g>
<!-- S17&#45;&gt;S15 -->
<g id="edge11" class="edge">
<title>S17&#45;&gt;S15</title>
<path fill="none" stroke="black" d="M996.71,-146.21C968.54,-146.56 912.51,-147.25 879.04,-147.67"/>
<polygon fill="black" stroke="black" points="878.99,-144.17 869.03,-147.79 879.07,-151.17 878.99,-144.17"/>
<text text-anchor="middle" x="933" y="-150.8" font-family="Times New Roman,serif" font-size="14.00">A</text>
</g>
</g>
</svg>
