<?xml version="1.0" encoding="UTF-8" standalone="no"?>
<!DOCTYPE svg PUBLIC "-//W3C//DTD SVG 1.1//EN"
 "http://www.w3.org/Graphics/SVG/1.1/DTD/svg11.dtd">
<!-- Generated by graphviz version 2.50.0 (0)
 -->
<!-- Title: NFA Pages: 1 -->
<svg width="1041pt" height="302pt"
 viewBox="0.00 0.00 1041.00 302.00" xmlns="http://www.w3.org/2000/svg" xmlns:xlink="http://www.w3.org/1999/xlink">
<g id="graph0" class="graph" transform="scale(1 1) rotate(0) translate(4 298)">
<title>NFA</title>
<polygon fill="white" stroke="transparent" points="-4,4 -4,-298 1037,-298 1037,4 -4,4"/>
<!-- I -->
<!-- S0 -->
<g id="node2" class="node">
<title>S0</title>
<ellipse fill="red" stroke="red" cx="113" cy="-22" rx="18" ry="18"/>
<ellipse fill="none" stroke="red" cx="113" cy="-22" rx="22" ry="22"/>
</g>
<!-- I&#45;&gt;S0 -->
<g id="edge1" class="edge">
<title>I&#45;&gt;S0</title>
<path fill="none" stroke="darkgreen" stroke-width="4" d="M54.12,-22C62.54,-22 71.96,-22 80.72,-22"/>
<polygon fill="darkgreen" stroke="darkgreen" stroke-width="4" points="80.96,-25.5 90.96,-22 80.96,-18.5 80.96,-25.5"/>
</g>
<!-- S1 -->
<g id="node3" class="node">
<title>S1</title>
<ellipse fill="none" stroke="black" cx="199" cy="-126" rx="18" ry="18"/>
</g>
<!-- S0&#45;&gt;S1 -->
<g id="edge30" class="edge">
<title>S0&#45;&gt;S1</title>
<path fill="none" stroke="black" d="M127.5,-38.71C141.88,-56.52 164.7,-84.77 180.47,-104.29"/>
<polygon fill="black" stroke="black" points="177.94,-106.74 186.95,-112.32 183.39,-102.34 177.94,-106.74"/>
<text text-anchor="middle" x="158" y="-83.8" font-family="Times New Roman,serif" font-size="14.00">B</text>
</g>
<!-- S2 -->
<g id="node4" class="node">
<title>S2</title>
<ellipse fill="none" stroke="black" cx="279" cy="-180" rx="18" ry="18"/>
</g>
<!-- S1&#45;&gt;S2 -->
<g id="edge22" class="edge">
<title>S1&#45;&gt;S2</title>
<path fill="none" stroke="black" d="M214.31,-135.9C225.74,-143.82 241.99,-155.07 255.21,-164.22"/>
<polygon fill="black" stroke="black" points="253.57,-167.34 263.78,-170.16 257.55,-161.59 253.57,-167.34"/>
<text text-anchor="middle" x="239" y="-157.8" font-family="Times New Roman,serif" font-size="14.00">F</text>
</g>
<!-- S18 -->
<g id="node20" class="node">
<title>S18</title>
<ellipse fill="none" stroke="black" cx="279" cy="-126" rx="18" ry="18"/>
</g>
<!-- S1&#45;&gt;S18 -->
<g id="edge29" class="edge">
<title>S1&#45;&gt;S18</title>
<path fill="none" stroke="black" d="M217.31,-126C227.11,-126 239.58,-126 250.67,-126"/>
<polygon fill="black" stroke="black" points="250.74,-129.5 260.74,-126 250.74,-122.5 250.74,-129.5"/>
<text text-anchor="middle" x="239" y="-129.8" font-family="Times New Roman,serif" font-size="14.00">F</text>
</g>
<!-- S3 -->
<g id="node5" class="node">
<title>S3</title>
<ellipse fill="none" stroke="black" cx="361" cy="-180" rx="18" ry="18"/>
</g>
<!-- S2&#45;&gt;S3 -->
<g id="edge21" class="edge">
<title>S2&#45;&gt;S3</title>
<path fill="none" stroke="black" d="M297.36,-180C307.7,-180 321.06,-180 332.78,-180"/>
<polygon fill="black" stroke="black" points="332.95,-183.5 342.95,-180 332.95,-176.5 332.95,-183.5"/>
<text text-anchor="middle" x="320" y="-183.8" font-family="Times New Roman,serif" font-size="14.00">C</text>
</g>
<!-- S4 -->
<g id="node6" class="node">
<title>S4</title>
<ellipse fill="none" stroke="black" cx="443" cy="-180" rx="18" ry="18"/>
</g>
<!-- S3&#45;&gt;S4 -->
<g id="edge20" class="edge">
<title>S3&#45;&gt;S4</title>
<path fill="none" stroke="black" d="M379.36,-180C389.7,-180 403.06,-180 414.78,-180"/>
<polygon fill="black" stroke="black" points="414.95,-183.5 424.95,-180 414.95,-176.5 414.95,-183.5"/>
<text text-anchor="middle" x="402" y="-183.8" font-family="Times New Roman,serif" font-size="14.00">G</text>
</g>
<!-- S5 -->
<g id="node7" class="node">
<title>S5</title>
<ellipse fill="none" stroke="black" cx="525" cy="-180" rx="18" ry="18"/>
</g>
<!-- S4&#45;&gt;S5 -->
<g id="edge19" class="edge">
<title>S4&#45;&gt;S5</title>
<path fill="none" stroke="black" d="M461.36,-180C471.7,-180 485.06,-180 496.78,-180"/>
<polygon fill="black" stroke="black" points="496.95,-183.5 506.95,-180 496.95,-176.5 496.95,-183.5"/>
<text text-anchor="middle" x="484" y="-183.8" font-family="Times New Roman,serif" font-size="14.00">D</text>
</g>
<!-- S6 -->
<g id="node8" class="node">
<title>S6</title>
<ellipse fill="none" stroke="black" cx="607" cy="-180" rx="18" ry="18"/>
</g>
<!-- S5&#45;&gt;S6 -->
<g id="edge18" class="edge">
<title>S5&#45;&gt;S6</title>
<path fill="none" stroke="black" d="M543.36,-180C553.7,-180 567.06,-180 578.78,-180"/>
<polygon fill="black" stroke="black" points="578.95,-183.5 588.95,-180 578.95,-176.5 578.95,-183.5"/>
<text text-anchor="middle" x="566" y="-183.8" font-family="Times New Roman,serif" font-size="14.00">G</text>
</g>
<!-- S7 -->
<g id="node9" class="node">
<title>S7</title>
<ellipse fill="none" stroke="black" cx="689" cy="-180" rx="18" ry="18"/>
</g>
<!-- S6&#45;&gt;S7 -->
<g id="edge17" class="edge">
<title>S6&#45;&gt;S7</title>
<path fill="none" stroke="black" d="M625.36,-180C635.7,-180 649.06,-180 660.78,-180"/>
<polygon fill="black" stroke="black" points="660.95,-183.5 670.95,-180 660.95,-176.5 660.95,-183.5"/>
<text text-anchor="middle" x="648" y="-183.8" font-family="Times New Roman,serif" font-size="14.00">C</text>
</g>
<!-- S8 -->
<g id="node10" class="node">
<title>S8</title>
<ellipse fill="none" stroke="black" cx="769" cy="-126" rx="18" ry="18"/>
</g>
<!-- S7&#45;&gt;S8 -->
<g id="edge16" class="edge">
<title>S7&#45;&gt;S8</title>
<path fill="none" stroke="black" d="M704.31,-170.1C715.74,-162.18 731.99,-150.93 745.21,-141.78"/>
<polygon fill="black" stroke="black" points="747.55,-144.41 753.78,-135.84 743.57,-138.66 747.55,-144.41"/>
<text text-anchor="middle" x="729" y="-157.8" font-family="Times New Roman,serif" font-size="14.00">F</text>
</g>
<!-- S9 -->
<g id="node11" class="node">
<title>S9</title>
<ellipse fill="none" stroke="black" cx="851" cy="-230" rx="18" ry="18"/>
</g>
<!-- S8&#45;&gt;S9 -->
<g id="edge6" class="edge">
<title>S8&#45;&gt;S9</title>
<path fill="none" stroke="black" d="M780.79,-140.03C794.22,-157.49 817.32,-187.52 833.11,-208.05"/>
<polygon fill="black" stroke="black" points="830.51,-210.4 839.38,-216.2 836.06,-206.14 830.51,-210.4"/>
<text text-anchor="middle" x="810" y="-187.8" font-family="Times New Roman,serif" font-size="14.00">A</text>
</g>
<!-- S12 -->
<g id="node14" class="node">
<title>S12</title>
<ellipse fill="none" stroke="black" cx="851" cy="-52" rx="18" ry="18"/>
</g>
<!-- S8&#45;&gt;S12 -->
<g id="edge10" class="edge">
<title>S8&#45;&gt;S12</title>
<path fill="none" stroke="black" d="M782.85,-114.11C795.45,-102.46 814.85,-84.52 829.56,-70.91"/>
<polygon fill="black" stroke="black" points="832.21,-73.22 837.18,-63.86 827.46,-68.08 832.21,-73.22"/>
<text text-anchor="middle" x="810" y="-96.8" font-family="Times New Roman,serif" font-size="14.00">C</text>
</g>
<!-- S15 -->
<g id="node17" class="node">
<title>S15</title>
<ellipse fill="none" stroke="black" cx="851" cy="-119" rx="18" ry="18"/>
</g>
<!-- S8&#45;&gt;S15 -->
<g id="edge15" class="edge">
<title>S8&#45;&gt;S15</title>
<path fill="none" stroke="black" d="M786.97,-124.52C797.36,-123.61 810.9,-122.42 822.77,-121.38"/>
<polygon fill="black" stroke="black" points="823.4,-124.84 833.06,-120.48 822.79,-117.87 823.4,-124.84"/>
<text text-anchor="middle" x="810" y="-125.8" font-family="Times New Roman,serif" font-size="14.00">B</text>
</g>
<!-- S9&#45;&gt;S1 -->
<g id="edge5" class="edge">
<title>S9&#45;&gt;S1</title>
<path fill="none" stroke="black" d="M832.85,-231.35C816.66,-232.51 791.69,-234 770,-234 278,-234 278,-234 278,-234 238.14,-234 216.6,-185.05 206.77,-153.06"/>
<polygon fill="black" stroke="black" points="210.11,-152 203.99,-143.35 203.38,-153.93 210.11,-152"/>
<text text-anchor="middle" x="525" y="-237.8" font-family="Times New Roman,serif" font-size="14.00">B</text>
</g>
<!-- S10 -->
<g id="node12" class="node">
<title>S10</title>
<ellipse fill="none" stroke="black" cx="933" cy="-276" rx="18" ry="18"/>
</g>
<!-- S9&#45;&gt;S10 -->
<g id="edge4" class="edge">
<title>S9&#45;&gt;S10</title>
<path fill="none" stroke="black" d="M867.05,-238.65C878.67,-245.33 894.97,-254.71 908.33,-262.39"/>
<polygon fill="black" stroke="black" points="906.61,-265.44 917.02,-267.39 910.1,-259.37 906.61,-265.44"/>
<text text-anchor="middle" x="892" y="-258.8" font-family="Times New Roman,serif" font-size="14.00">D</text>
</g>
<!-- S11 -->
<g id="node13" class="node">
<title>S11</title>
<ellipse fill="none" stroke="black" cx="1015" cy="-238" rx="18" ry="18"/>
</g>
<!-- S10&#45;&gt;S11 -->
<g id="edge3" class="edge">
<title>S10&#45;&gt;S11</title>
<path fill="none" stroke="black" d="M949.81,-268.49C961.05,-263.15 976.39,-255.86 989.25,-249.75"/>
<polygon fill="black" stroke="black" points="990.97,-252.81 998.5,-245.36 987.97,-246.49 990.97,-252.81"/>
<text text-anchor="middle" x="974" y="-262.8" font-family="Times New Roman,serif" font-size="14.00">E</text>
</g>
<!-- S11&#45;&gt;S9 -->
<g id="edge2" class="edge">
<title>S11&#45;&gt;S9</title>
<path fill="none" stroke="black" d="M996.89,-236.81C984.23,-235.95 966.54,-234.81 951,-234 926.79,-232.74 899.24,-231.66 879.36,-230.94"/>
<polygon fill="black" stroke="black" points="879.29,-227.43 869.17,-230.57 879.04,-234.43 879.29,-227.43"/>
<text text-anchor="middle" x="933" y="-237.8" font-family="Times New Roman,serif" font-size="14.00">A</text>
</g>
<!-- S13 -->
<g id="node15" class="node">
<title>S13</title>
<ellipse fill="none" stroke="black" cx="933" cy="-52" rx="18" ry="18"/>
</g>
<!-- S12&#45;&gt;S13 -->
<g id="edge9" class="edge">
<title>S12&#45;&gt;S13</title>
<path fill="none" stroke="black" d="M869.36,-52C879.7,-52 893.06,-52 904.78,-52"/>
<polygon fill="black" stroke="black" points="904.95,-55.5 914.95,-52 904.95,-48.5 904.95,-55.5"/>
<text text-anchor="middle" x="892" y="-55.8" font-family="Times New Roman,serif" font-size="14.00">D</text>
</g>
<!-- S14 -->
<g id="node16" class="node">
<title>S14</title>
<ellipse fill="none" stroke="black" cx="1015" cy="-29" rx="18" ry="18"/>
</g>
<!-- S13&#45;&gt;S14 -->
<g id="edge8" class="edge">
<title>S13&#45;&gt;S14</title>
<path fill="none" stroke="black" d="M950.58,-47.23C961.3,-44.15 975.5,-40.07 987.74,-36.55"/>
<polygon fill="black" stroke="black" points="988.8,-39.89 997.45,-33.76 986.87,-33.16 988.8,-39.89"/>
<text text-anchor="middle" x="974" y="-45.8" font-family="Times New Roman,serif" font-size="14.00">D</text>
</g>
<!-- S14&#45;&gt;S0 -->
<g id="edge7" class="edge">
<title>S14&#45;&gt;S0</title>
<path fill="none" stroke="black" d="M998.44,-21.72C982.59,-14.98 957.12,-6 934,-6 198,-6 198,-6 198,-6 179.85,-6 159.89,-9.65 143.98,-13.46"/>
<polygon fill="black" stroke="black" points="142.99,-10.1 134.16,-15.95 144.72,-16.88 142.99,-10.1"/>
<text text-anchor="middle" x="566" y="-9.8" font-family="Times New Roman,serif" font-size="14.00">C</text>
</g>
<!-- S15&#45;&gt;S1 -->
<g id="edge14" class="edge">
<title>S15&#45;&gt;S1</title>
<path fill="none" stroke="black" d="M837.58,-106.98C822.76,-93.95 796.63,-75 770,-75 278,-75 278,-75 278,-75 254.79,-75 233.1,-91.01 218.52,-105.09"/>
<polygon fill="black" stroke="black" points="215.67,-103 211.18,-112.6 220.67,-107.89 215.67,-103"/>
<text text-anchor="middle" x="525" y="-78.8" font-family="Times New Roman,serif" font-size="14.00">A</text>
</g>
<!-- S16 -->
<g id="node18" class="node">
<title>S16</title>
<ellipse fill="none" stroke="black" cx="933" cy="-109" rx="18" ry="18"/>
</g>
<!-- S15&#45;&gt;S16 -->
<g id="edge13" class="edge">
<title>S15&#45;&gt;S16</title>
<path fill="none" stroke="black" d="M868.97,-116.88C879.47,-115.57 893.18,-113.85 905.13,-112.36"/>
<polygon fill="black" stroke="black" points="905.57,-115.83 915.06,-111.12 904.7,-108.89 905.57,-115.83"/>
<text text-anchor="middle" x="892" y="-117.8" font-family="Times New Roman,serif" font-size="14.00">A</text>
</g>
<!-- S17 -->
<g id="node19" class="node">
<title>S17</title>
<ellipse fill="none" stroke="black" cx="1015" cy="-157" rx="18" ry="18"/>
</g>
<!-- S16&#45;&gt;S17 -->
<g id="edge12" class="edge">
<title>S16&#45;&gt;S17</title>
<path fill="none" stroke="black" d="M949.16,-117.06C957.96,-121.83 969.21,-128.08 979,-134 982.96,-136.39 987.11,-139.02 991.11,-141.61"/>
<polygon fill="black" stroke="black" points="989.23,-144.56 999.51,-147.13 993.08,-138.71 989.23,-144.56"/>
<text text-anchor="middle" x="974" y="-137.8" font-family="Times New Roman,serif" font-size="14.00">E</text>
</g>
<!-- S17&#45;&gt;S15 -->
<g id="edge11" class="edge">
<title>S17&#45;&gt;S15</title>
<path fill="none" stroke="black" d="M996.9,-154.87C972.27,-151.56 925.53,-144.35 887,-133 883.8,-132.06 880.48,-130.93 877.23,-129.74"/>
<polygon fill="black" stroke="black" points="878.4,-126.44 867.81,-126.05 875.85,-132.96 878.4,-126.44"/>
<text text-anchor="middle" x="933" y="-150.8" font-family="Times New Roman,serif" font-size="14.00">D</text>
</g>
<!-- S19 -->
<g id="node21" class="node">
<title>S19</title>
<ellipse fill="none" stroke="black" cx="361" cy="-126" rx="18" ry="18"/>
</g>
<!-- S18&#45;&gt;S19 -->
<g id="edge28" class="edge">
<title>S18&#45;&gt;S19</title>
<path fill="none" stroke="black" d="M297.36,-126C307.7,-126 321.06,-126 332.78,-126"/>
<polygon fill="black" stroke="black" points="332.95,-129.5 342.95,-126 332.95,-122.5 332.95,-129.5"/>
<text text-anchor="middle" x="320" y="-129.8" font-family="Times New Roman,serif" font-size="14.00">C</text>
</g>
<!-- S20 -->
<g id="node22" class="node">
<title>S20</title>
<ellipse fill="none" stroke="black" cx="443" cy="-126" rx="18" ry="18"/>
</g>
<!-- S19&#45;&gt;S20 -->
<g id="edge27" class="edge">
<title>S19&#45;&gt;S20</title>
<path fill="none" stroke="black" d="M379.36,-126C389.7,-126 403.06,-126 414.78,-126"/>
<polygon fill="black" stroke="black" points="414.95,-129.5 424.95,-126 414.95,-122.5 414.95,-129.5"/>
<text text-anchor="middle" x="402" y="-129.8" font-family="Times New Roman,serif" font-size="14.00">G</text>
</g>
<!-- S21 -->
<g id="node23" class="node">
<title>S21</title>
<ellipse fill="none" stroke="black" cx="525" cy="-126" rx="18" ry="18"/>
</g>
<!-- S20&#45;&gt;S21 -->
<g id="edge26" class="edge">
<title>S20&#45;&gt;S21</title>
<path fill="none" stroke="black" d="M461.36,-126C471.7,-126 485.06,-126 496.78,-126"/>
<polygon fill="black" stroke="black" points="496.95,-129.5 506.95,-126 496.95,-122.5 496.95,-129.5"/>
<text text-anchor="middle" x="484" y="-129.8" font-family="Times New Roman,serif" font-size="14.00">D</text>
</g>
<!-- S22 -->
<g id="node24" class="node">
<title>S22</title>
<ellipse fill="none" stroke="black" cx="607" cy="-126" rx="18" ry="18"/>
</g>
<!-- S21&#45;&gt;S22 -->
<g id="edge25" class="edge">
<title>S21&#45;&gt;S22</title>
<path fill="none" stroke="black" d="M543.36,-126C553.7,-126 567.06,-126 578.78,-126"/>
<polygon fill="black" stroke="black" points="578.95,-129.5 588.95,-126 578.95,-122.5 578.95,-129.5"/>
<text text-anchor="middle" x="566" y="-129.8" font-family="Times New Roman,serif" font-size="14.00">G</text>
</g>
<!-- S23 -->
<g id="node25" class="node">
<title>S23</title>
<ellipse fill="none" stroke="black" cx="689" cy="-126" rx="18" ry="18"/>
</g>
<!-- S22&#45;&gt;S23 -->
<g id="edge24" class="edge">
<title>S22&#45;&gt;S23</title>
<path fill="none" stroke="black" d="M625.36,-126C635.7,-126 649.06,-126 660.78,-126"/>
<polygon fill="black" stroke="black" points="660.95,-129.5 670.95,-126 660.95,-122.5 660.95,-129.5"/>
<text text-anchor="middle" x="648" y="-129.8" font-family="Times New Roman,serif" font-size="14.00">C</text>
</g>
<!-- S23&#45;&gt;S8 -->
<g id="edge23" class="edge">
<title>S23&#45;&gt;S8</title>
<path fill="none" stroke="black" d="M707.31,-126C717.11,-126 729.58,-126 740.67,-126"/>
<polygon fill="black" stroke="black" points="740.74,-129.5 750.74,-126 740.74,-122.5 740.74,-129.5"/>
<text text-anchor="middle" x="729" y="-129.8" font-family="Times New Roman,serif" font-size="14.00">F</text>
</g>
</g>
</svg>
