<svg xmlns="http://www.w3.org/2000/svg" xmlns:rdkit="http://www.rdkit.org/xml" xmlns:xlink="http://www.w3.org/1999/xlink" version="1.1" baseProfile="full" xml:space="preserve" width="1200px" height="250px" viewBox="0 0 1200 250">
<!-- END OF HEADER -->
<rect style="opacity:1.0;fill:#FFFFFF;stroke:none" width="1200.0" height="250.0" x="0.0" y="0.0"> </rect>
<path class="bond-0 atom-0 atom-1" d="M 69.3,54.7 L 66.5,79.8" style="fill:none;fill-rule:evenodd;stroke:#000000;stroke-width:2.0px;stroke-linecap:butt;stroke-linejoin:miter;stroke-opacity:1"/>
<path class="bond-1 atom-1 atom-2" d="M 66.5,79.8 L 43.2,89.9" style="fill:none;fill-rule:evenodd;stroke:#000000;stroke-width:2.0px;stroke-linecap:butt;stroke-linejoin:miter;stroke-opacity:1"/>
<path class="bond-1 atom-1 atom-2" d="M 65.0,86.0 L 48.8,93.1" style="fill:none;fill-rule:evenodd;stroke:#000000;stroke-width:2.0px;stroke-linecap:butt;stroke-linejoin:miter;stroke-opacity:1"/>
<path class="bond-2 atom-2 atom-3" d="M 43.2,89.9 L 34.7,83.6" style="fill:none;fill-rule:evenodd;stroke:#000000;stroke-width:2.0px;stroke-linecap:butt;stroke-linejoin:miter;stroke-opacity:1"/>
<path class="bond-2 atom-2 atom-3" d="M 34.7,83.6 L 26.1,77.3" style="fill:none;fill-rule:evenodd;stroke:#191919;stroke-width:2.0px;stroke-linecap:butt;stroke-linejoin:miter;stroke-opacity:1"/>
<path class="bond-3 atom-2 atom-4" d="M 43.2,89.9 L 40.4,115.1" style="fill:none;fill-rule:evenodd;stroke:#000000;stroke-width:2.0px;stroke-linecap:butt;stroke-linejoin:miter;stroke-opacity:1"/>
<path class="bond-4 atom-4 atom-5" d="M 40.4,115.1 L 30.3,119.5" style="fill:none;fill-rule:evenodd;stroke:#000000;stroke-width:2.0px;stroke-linecap:butt;stroke-linejoin:miter;stroke-opacity:1"/>
<path class="bond-4 atom-4 atom-5" d="M 30.3,119.5 L 20.2,123.9" style="fill:none;fill-rule:evenodd;stroke:#191919;stroke-width:2.0px;stroke-linecap:butt;stroke-linejoin:miter;stroke-opacity:1"/>
<path class="bond-5 atom-4 atom-6" d="M 40.4,115.1 L 60.8,130.1" style="fill:none;fill-rule:evenodd;stroke:#000000;stroke-width:2.0px;stroke-linecap:butt;stroke-linejoin:miter;stroke-opacity:1"/>
<path class="bond-5 atom-4 atom-6" d="M 46.5,113.3 L 60.7,123.8" style="fill:none;fill-rule:evenodd;stroke:#000000;stroke-width:2.0px;stroke-linecap:butt;stroke-linejoin:miter;stroke-opacity:1"/>
<path class="bond-6 atom-6 atom-7" d="M 60.8,130.1 L 59.6,140.5" style="fill:none;fill-rule:evenodd;stroke:#000000;stroke-width:2.0px;stroke-linecap:butt;stroke-linejoin:miter;stroke-opacity:1"/>
<path class="bond-6 atom-6 atom-7" d="M 59.6,140.5 L 58.4,150.9" style="fill:none;fill-rule:evenodd;stroke:#0000FF;stroke-width:2.0px;stroke-linecap:butt;stroke-linejoin:miter;stroke-opacity:1"/>
<path class="bond-7 atom-7 atom-8" d="M 61.5,157.9 L 69.9,164.1" style="fill:none;fill-rule:evenodd;stroke:#0000FF;stroke-width:2.0px;stroke-linecap:butt;stroke-linejoin:miter;stroke-opacity:1"/>
<path class="bond-7 atom-7 atom-8" d="M 69.9,164.1 L 78.3,170.3" style="fill:none;fill-rule:evenodd;stroke:#000000;stroke-width:2.0px;stroke-linecap:butt;stroke-linejoin:miter;stroke-opacity:1"/>
<path class="bond-8 atom-7 atom-9" d="M 54.4,156.8 L 44.5,161.1" style="fill:none;fill-rule:evenodd;stroke:#0000FF;stroke-width:2.0px;stroke-linecap:butt;stroke-linejoin:miter;stroke-opacity:1"/>
<path class="bond-8 atom-7 atom-9" d="M 44.5,161.1 L 34.7,165.4" style="fill:none;fill-rule:evenodd;stroke:#000000;stroke-width:2.0px;stroke-linecap:butt;stroke-linejoin:miter;stroke-opacity:1"/>
<path class="bond-9 atom-6 atom-10" d="M 60.8,130.1 L 84.0,120.0" style="fill:none;fill-rule:evenodd;stroke:#000000;stroke-width:2.0px;stroke-linecap:butt;stroke-linejoin:miter;stroke-opacity:1"/>
<path class="bond-10 atom-10 atom-11" d="M 84.0,120.0 L 86.8,94.9" style="fill:none;fill-rule:evenodd;stroke:#000000;stroke-width:2.0px;stroke-linecap:butt;stroke-linejoin:miter;stroke-opacity:1"/>
<path class="bond-10 atom-10 atom-11" d="M 79.4,115.7 L 81.4,98.1" style="fill:none;fill-rule:evenodd;stroke:#000000;stroke-width:2.0px;stroke-linecap:butt;stroke-linejoin:miter;stroke-opacity:1"/>
<path class="bond-11 atom-11 atom-12" d="M 86.8,94.9 L 112.0,97.7" style="fill:none;fill-rule:evenodd;stroke:#000000;stroke-width:2.0px;stroke-linecap:butt;stroke-linejoin:miter;stroke-opacity:1"/>
<path class="bond-12 atom-12 atom-13" d="M 112.0,97.7 L 136.8,92.6" style="fill:none;fill-rule:evenodd;stroke:#000000;stroke-width:2.0px;stroke-linecap:butt;stroke-linejoin:miter;stroke-opacity:1"/>
<path class="bond-13 atom-13 atom-14" d="M 136.8,92.6 L 149.3,114.7" style="fill:none;fill-rule:evenodd;stroke:#000000;stroke-width:2.0px;stroke-linecap:butt;stroke-linejoin:miter;stroke-opacity:1"/>
<path class="bond-14 atom-14 atom-15" d="M 149.3,114.7 L 132.2,133.3" style="fill:none;fill-rule:evenodd;stroke:#000000;stroke-width:2.0px;stroke-linecap:butt;stroke-linejoin:miter;stroke-opacity:1"/>
<path class="bond-15 atom-15 atom-16" d="M 132.2,133.3 L 157.0,128.3" style="fill:none;fill-rule:evenodd;stroke:#000000;stroke-width:2.0px;stroke-linecap:butt;stroke-linejoin:miter;stroke-opacity:1"/>
<path class="bond-16 atom-16 atom-17" d="M 157.0,128.3 L 165.0,135.7" style="fill:none;fill-rule:evenodd;stroke:#000000;stroke-width:2.0px;stroke-linecap:butt;stroke-linejoin:miter;stroke-opacity:1"/>
<path class="bond-16 atom-16 atom-17" d="M 165.0,135.7 L 173.1,143.0" style="fill:none;fill-rule:evenodd;stroke:#191919;stroke-width:2.0px;stroke-linecap:butt;stroke-linejoin:miter;stroke-opacity:1"/>
<path class="bond-17 atom-16 atom-18" d="M 157.0,128.3 L 159.8,103.1" style="fill:none;fill-rule:evenodd;stroke:#000000;stroke-width:2.0px;stroke-linecap:butt;stroke-linejoin:miter;stroke-opacity:1"/>
<path class="bond-18 atom-18 atom-19" d="M 159.8,103.1 L 170.4,97.1" style="fill:none;fill-rule:evenodd;stroke:#000000;stroke-width:2.0px;stroke-linecap:butt;stroke-linejoin:miter;stroke-opacity:1"/>
<path class="bond-18 atom-18 atom-19" d="M 170.4,97.1 L 181.0,91.1" style="fill:none;fill-rule:evenodd;stroke:#191919;stroke-width:2.0px;stroke-linecap:butt;stroke-linejoin:miter;stroke-opacity:1"/>
<path class="bond-19 atom-15 atom-20" d="M 132.2,133.3 L 109.1,122.9" style="fill:none;fill-rule:evenodd;stroke:#000000;stroke-width:2.0px;stroke-linecap:butt;stroke-linejoin:miter;stroke-opacity:1"/>
<path class="bond-20 atom-11 atom-1" d="M 86.8,94.9 L 66.5,79.8" style="fill:none;fill-rule:evenodd;stroke:#000000;stroke-width:2.0px;stroke-linecap:butt;stroke-linejoin:miter;stroke-opacity:1"/>
<path class="bond-21 atom-20 atom-12" d="M 109.1,122.9 L 112.0,97.7" style="fill:none;fill-rule:evenodd;stroke:#000000;stroke-width:2.0px;stroke-linecap:butt;stroke-linejoin:miter;stroke-opacity:1"/>
<path class="bond-22 atom-20 atom-10" d="M 109.1,122.9 L 84.0,120.0" style="fill:none;fill-rule:evenodd;stroke:#000000;stroke-width:2.0px;stroke-linecap:butt;stroke-linejoin:miter;stroke-opacity:1"/>
<path class="bond-23 atom-18 atom-13" d="M 159.8,103.1 L 136.8,92.6" style="fill:none;fill-rule:evenodd;stroke:#000000;stroke-width:2.0px;stroke-linecap:butt;stroke-linejoin:miter;stroke-opacity:1"/>
<path class="atom-3" d="M 15.3 74.1 L 16.4 73.0 L 15.0 72.7 L 15.2 72.0 L 16.5 72.7 L 16.3 71.3 L 17.1 71.3 L 16.9 72.7 L 18.2 72.1 L 18.4 72.7 L 17.0 73.0 L 18.0 74.1 L 17.4 74.5 L 16.7 73.2 L 16.0 74.5 L 15.3 74.1 " fill="#191919"/>
<path class="atom-3" d="M 18.7 77.4 L 19.7 77.4 L 19.7 78.4 L 18.7 78.4 L 18.7 77.4 M 18.7 73.9 L 19.7 73.9 L 19.7 74.9 L 18.7 74.9 L 18.7 73.9 " fill="#191919"/>
<path class="atom-3" d="M 20.5 72.7 Q 20.8 72.1, 21.4 71.7 Q 22.0 71.3, 22.9 71.3 Q 24.0 71.3, 24.6 71.9 Q 25.2 72.5, 25.2 73.5 Q 25.2 74.6, 24.4 75.6 Q 23.6 76.6, 22.0 77.7 L 25.3 77.7 L 25.3 78.5 L 20.5 78.5 L 20.5 77.9 Q 21.8 76.9, 22.6 76.2 Q 23.4 75.5, 23.8 74.9 Q 24.2 74.2, 24.2 73.6 Q 24.2 72.9, 23.8 72.5 Q 23.5 72.1, 22.9 72.1 Q 22.3 72.1, 21.9 72.3 Q 21.5 72.6, 21.3 73.1 L 20.5 72.7 " fill="#191919"/>
<path class="atom-5" d="M 9.9 124.4 L 11.0 123.3 L 9.6 123.1 L 9.8 122.3 L 11.1 123.0 L 10.9 121.6 L 11.6 121.6 L 11.4 123.0 L 12.7 122.4 L 13.0 123.1 L 11.5 123.3 L 12.6 124.4 L 11.9 124.8 L 11.2 123.5 L 10.5 124.8 L 9.9 124.4 " fill="#191919"/>
<path class="atom-5" d="M 13.3 127.7 L 14.3 127.7 L 14.3 128.7 L 13.3 128.7 L 13.3 127.7 M 13.3 124.2 L 14.3 124.2 L 14.3 125.2 L 13.3 125.2 L 13.3 124.2 " fill="#191919"/>
<path class="atom-5" d="M 15.4 128.0 L 17.0 128.0 L 17.0 122.7 L 15.3 123.2 L 15.0 122.6 L 17.2 121.6 L 18.0 121.8 L 18.0 128.0 L 19.4 128.0 L 19.4 128.9 L 15.4 128.9 L 15.4 128.0 " fill="#191919"/>
<path class="atom-7" d="M 56.3 151.7 L 58.7 155.5 Q 58.9 155.9, 59.3 156.6 Q 59.7 157.2, 59.7 157.3 L 59.7 151.7 L 60.6 151.7 L 60.6 158.9 L 59.7 158.9 L 57.1 154.7 Q 56.8 154.2, 56.5 153.7 Q 56.2 153.1, 56.1 153.0 L 56.1 158.9 L 55.2 158.9 L 55.2 151.7 L 56.3 151.7 " fill="#0000FF"/>
<path class="atom-17" d="M 174.3 144.6 L 175.4 143.5 L 174.0 143.2 L 174.2 142.5 L 175.5 143.1 L 175.3 141.7 L 176.0 141.7 L 175.8 143.1 L 177.1 142.5 L 177.4 143.2 L 175.9 143.5 L 176.9 144.5 L 176.3 145.0 L 175.6 143.7 L 174.9 145.0 L 174.3 144.6 " fill="#191919"/>
<path class="atom-17" d="M 177.7 147.8 L 178.7 147.8 L 178.7 148.8 L 177.7 148.8 L 177.7 147.8 M 177.7 144.3 L 178.7 144.3 L 178.7 145.3 L 177.7 145.3 L 177.7 144.3 " fill="#191919"/>
<path class="atom-17" d="M 184.1 146.5 L 184.9 146.5 L 184.9 147.4 L 184.1 147.4 L 184.1 149.0 L 183.1 149.0 L 183.1 147.4 L 179.4 147.4 L 179.4 146.7 L 182.6 141.8 L 184.1 141.8 L 184.1 146.5 M 180.6 146.5 L 183.1 146.5 L 183.1 142.5 L 180.6 146.5 " fill="#191919"/>
<path class="atom-19" d="M 180.5 89.8 L 181.5 88.8 L 180.1 88.5 L 180.4 87.8 L 181.6 88.4 L 181.5 87.0 L 182.2 87.0 L 182.0 88.4 L 183.3 87.8 L 183.5 88.5 L 182.1 88.7 L 183.1 89.8 L 182.5 90.3 L 181.8 88.9 L 181.1 90.3 L 180.5 89.8 " fill="#191919"/>
<path class="atom-19" d="M 183.8 93.1 L 184.9 93.1 L 184.9 94.1 L 183.8 94.1 L 183.8 93.1 M 183.8 89.6 L 184.9 89.6 L 184.9 90.6 L 183.8 90.6 L 183.8 89.6 " fill="#191919"/>
<path class="atom-19" d="M 189.1 90.5 Q 189.8 90.7, 190.1 91.2 Q 190.4 91.6, 190.4 92.3 Q 190.4 92.9, 190.1 93.4 Q 189.8 93.9, 189.3 94.1 Q 188.7 94.4, 188.0 94.4 Q 187.2 94.4, 186.6 94.1 Q 186.1 93.8, 185.6 93.3 L 186.2 92.7 Q 186.6 93.2, 187.0 93.4 Q 187.4 93.6, 188.0 93.6 Q 188.6 93.6, 189.0 93.2 Q 189.4 92.9, 189.4 92.3 Q 189.4 91.6, 189.0 91.2 Q 188.6 90.9, 187.7 90.9 L 187.2 90.9 L 187.2 90.2 L 187.7 90.2 Q 188.4 90.2, 188.9 89.8 Q 189.3 89.5, 189.3 88.9 Q 189.3 88.4, 188.9 88.1 Q 188.6 87.8, 188.0 87.8 Q 187.4 87.8, 187.0 88.1 Q 186.7 88.3, 186.4 88.8 L 185.7 88.4 Q 185.9 87.8, 186.5 87.4 Q 187.1 87.0, 188.0 87.0 Q 189.0 87.0, 189.7 87.5 Q 190.3 88.0, 190.3 88.9 Q 190.3 89.4, 190.0 89.9 Q 189.7 90.3, 189.1 90.5 " fill="#191919"/>
<path class="legend" d="M 103.4 243.8 L 102.2 240.4 L 97.8 240.4 L 96.6 243.8 L 95.1 243.8 L 99.0 232.4 L 100.9 232.4 L 104.9 243.8 L 103.4 243.8 M 98.2 239.1 L 101.8 239.1 L 100.0 234.0 L 98.2 239.1 " fill="#000000"/>
<path class="bond-0 atom-0 atom-1" d="M 269.1,54.7 L 266.2,79.8" style="fill:none;fill-rule:evenodd;stroke:#000000;stroke-width:2.0px;stroke-linecap:butt;stroke-linejoin:miter;stroke-opacity:1"/>
<path class="bond-1 atom-1 atom-2" d="M 266.2,79.8 L 243.0,89.9" style="fill:none;fill-rule:evenodd;stroke:#000000;stroke-width:2.0px;stroke-linecap:butt;stroke-linejoin:miter;stroke-opacity:1"/>
<path class="bond-1 atom-1 atom-2" d="M 264.8,86.0 L 248.5,93.1" style="fill:none;fill-rule:evenodd;stroke:#000000;stroke-width:2.0px;stroke-linecap:butt;stroke-linejoin:miter;stroke-opacity:1"/>
<path class="bond-2 atom-2 atom-3" d="M 243.0,89.9 L 234.3,83.5" style="fill:none;fill-rule:evenodd;stroke:#000000;stroke-width:2.0px;stroke-linecap:butt;stroke-linejoin:miter;stroke-opacity:1"/>
<path class="bond-2 atom-2 atom-3" d="M 234.3,83.5 L 225.7,77.1" style="fill:none;fill-rule:evenodd;stroke:#191919;stroke-width:2.0px;stroke-linecap:butt;stroke-linejoin:miter;stroke-opacity:1"/>
<path class="bond-3 atom-2 atom-4" d="M 243.0,89.9 L 240.2,115.1" style="fill:none;fill-rule:evenodd;stroke:#000000;stroke-width:2.0px;stroke-linecap:butt;stroke-linejoin:miter;stroke-opacity:1"/>
<path class="bond-4 atom-4 atom-5" d="M 240.2,115.1 L 230.2,119.4" style="fill:none;fill-rule:evenodd;stroke:#000000;stroke-width:2.0px;stroke-linecap:butt;stroke-linejoin:miter;stroke-opacity:1"/>
<path class="bond-4 atom-4 atom-5" d="M 230.2,119.4 L 220.2,123.8" style="fill:none;fill-rule:evenodd;stroke:#191919;stroke-width:2.0px;stroke-linecap:butt;stroke-linejoin:miter;stroke-opacity:1"/>
<path class="bond-5 atom-4 atom-6" d="M 240.2,115.1 L 260.5,130.1" style="fill:none;fill-rule:evenodd;stroke:#000000;stroke-width:2.0px;stroke-linecap:butt;stroke-linejoin:miter;stroke-opacity:1"/>
<path class="bond-5 atom-4 atom-6" d="M 246.2,113.3 L 260.5,123.8" style="fill:none;fill-rule:evenodd;stroke:#000000;stroke-width:2.0px;stroke-linecap:butt;stroke-linejoin:miter;stroke-opacity:1"/>
<path class="bond-6 atom-6 atom-7" d="M 260.5,130.1 L 259.4,140.5" style="fill:none;fill-rule:evenodd;stroke:#000000;stroke-width:2.0px;stroke-linecap:butt;stroke-linejoin:miter;stroke-opacity:1"/>
<path class="bond-6 atom-6 atom-7" d="M 259.4,140.5 L 258.2,150.9" style="fill:none;fill-rule:evenodd;stroke:#0000FF;stroke-width:2.0px;stroke-linecap:butt;stroke-linejoin:miter;stroke-opacity:1"/>
<path class="bond-7 atom-7 atom-8" d="M 261.3,157.9 L 269.7,164.1" style="fill:none;fill-rule:evenodd;stroke:#0000FF;stroke-width:2.0px;stroke-linecap:butt;stroke-linejoin:miter;stroke-opacity:1"/>
<path class="bond-7 atom-7 atom-8" d="M 269.7,164.1 L 278.1,170.3" style="fill:none;fill-rule:evenodd;stroke:#000000;stroke-width:2.0px;stroke-linecap:butt;stroke-linejoin:miter;stroke-opacity:1"/>
<path class="bond-8 atom-7 atom-9" d="M 254.1,156.8 L 244.3,161.1" style="fill:none;fill-rule:evenodd;stroke:#0000FF;stroke-width:2.0px;stroke-linecap:butt;stroke-linejoin:miter;stroke-opacity:1"/>
<path class="bond-8 atom-7 atom-9" d="M 244.3,161.1 L 234.5,165.4" style="fill:none;fill-rule:evenodd;stroke:#000000;stroke-width:2.0px;stroke-linecap:butt;stroke-linejoin:miter;stroke-opacity:1"/>
<path class="bond-9 atom-6 atom-10" d="M 260.5,130.1 L 283.8,120.0" style="fill:none;fill-rule:evenodd;stroke:#000000;stroke-width:2.0px;stroke-linecap:butt;stroke-linejoin:miter;stroke-opacity:1"/>
<path class="bond-10 atom-10 atom-11" d="M 283.8,120.0 L 286.6,94.9" style="fill:none;fill-rule:evenodd;stroke:#000000;stroke-width:2.0px;stroke-linecap:butt;stroke-linejoin:miter;stroke-opacity:1"/>
<path class="bond-10 atom-10 atom-11" d="M 279.1,115.7 L 281.1,98.1" style="fill:none;fill-rule:evenodd;stroke:#000000;stroke-width:2.0px;stroke-linecap:butt;stroke-linejoin:miter;stroke-opacity:1"/>
<path class="bond-11 atom-11 atom-12" d="M 286.6,94.9 L 311.7,97.7" style="fill:none;fill-rule:evenodd;stroke:#000000;stroke-width:2.0px;stroke-linecap:butt;stroke-linejoin:miter;stroke-opacity:1"/>
<path class="bond-12 atom-12 atom-13" d="M 311.7,97.7 L 336.6,92.6" style="fill:none;fill-rule:evenodd;stroke:#000000;stroke-width:2.0px;stroke-linecap:butt;stroke-linejoin:miter;stroke-opacity:1"/>
<path class="bond-13 atom-13 atom-14" d="M 336.6,92.6 L 349.0,114.7" style="fill:none;fill-rule:evenodd;stroke:#000000;stroke-width:2.0px;stroke-linecap:butt;stroke-linejoin:miter;stroke-opacity:1"/>
<path class="bond-14 atom-14 atom-15" d="M 349.0,114.7 L 332.0,133.3" style="fill:none;fill-rule:evenodd;stroke:#000000;stroke-width:2.0px;stroke-linecap:butt;stroke-linejoin:miter;stroke-opacity:1"/>
<path class="bond-15 atom-15 atom-16" d="M 332.0,133.3 L 356.8,128.3" style="fill:none;fill-rule:evenodd;stroke:#000000;stroke-width:2.0px;stroke-linecap:butt;stroke-linejoin:miter;stroke-opacity:1"/>
<path class="bond-16 atom-16 atom-17" d="M 356.8,128.3 L 364.8,135.7" style="fill:none;fill-rule:evenodd;stroke:#000000;stroke-width:2.0px;stroke-linecap:butt;stroke-linejoin:miter;stroke-opacity:1"/>
<path class="bond-16 atom-16 atom-17" d="M 364.8,135.7 L 372.9,143.0" style="fill:none;fill-rule:evenodd;stroke:#191919;stroke-width:2.0px;stroke-linecap:butt;stroke-linejoin:miter;stroke-opacity:1"/>
<path class="bond-17 atom-16 atom-18" d="M 356.8,128.3 L 359.6,103.1" style="fill:none;fill-rule:evenodd;stroke:#000000;stroke-width:2.0px;stroke-linecap:butt;stroke-linejoin:miter;stroke-opacity:1"/>
<path class="bond-18 atom-18 atom-19" d="M 359.6,103.1 L 370.2,97.1" style="fill:none;fill-rule:evenodd;stroke:#000000;stroke-width:2.0px;stroke-linecap:butt;stroke-linejoin:miter;stroke-opacity:1"/>
<path class="bond-18 atom-18 atom-19" d="M 370.2,97.1 L 380.8,91.1" style="fill:none;fill-rule:evenodd;stroke:#191919;stroke-width:2.0px;stroke-linecap:butt;stroke-linejoin:miter;stroke-opacity:1"/>
<path class="bond-19 atom-15 atom-20" d="M 332.0,133.3 L 308.9,122.9" style="fill:none;fill-rule:evenodd;stroke:#000000;stroke-width:2.0px;stroke-linecap:butt;stroke-linejoin:miter;stroke-opacity:1"/>
<path class="bond-20 atom-11 atom-1" d="M 286.6,94.9 L 266.2,79.8" style="fill:none;fill-rule:evenodd;stroke:#000000;stroke-width:2.0px;stroke-linecap:butt;stroke-linejoin:miter;stroke-opacity:1"/>
<path class="bond-21 atom-20 atom-12" d="M 308.9,122.9 L 311.7,97.7" style="fill:none;fill-rule:evenodd;stroke:#000000;stroke-width:2.0px;stroke-linecap:butt;stroke-linejoin:miter;stroke-opacity:1"/>
<path class="bond-22 atom-20 atom-10" d="M 308.9,122.9 L 283.8,120.0" style="fill:none;fill-rule:evenodd;stroke:#000000;stroke-width:2.0px;stroke-linecap:butt;stroke-linejoin:miter;stroke-opacity:1"/>
<path class="bond-23 atom-18 atom-13" d="M 359.6,103.1 L 336.6,92.6" style="fill:none;fill-rule:evenodd;stroke:#000000;stroke-width:2.0px;stroke-linecap:butt;stroke-linejoin:miter;stroke-opacity:1"/>
<path class="atom-3" d="M 215.4 74.1 L 216.4 73.0 L 215.0 72.7 L 215.2 72.0 L 216.5 72.7 L 216.3 71.3 L 217.1 71.3 L 216.9 72.7 L 218.2 72.1 L 218.4 72.7 L 217.0 73.0 L 218.0 74.1 L 217.4 74.5 L 216.7 73.2 L 216.0 74.5 L 215.4 74.1 " fill="#191919"/>
<path class="atom-3" d="M 218.7 77.4 L 219.7 77.4 L 219.7 78.4 L 218.7 78.4 L 218.7 77.4 M 218.7 73.9 L 219.7 73.9 L 219.7 74.9 L 218.7 74.9 L 218.7 73.9 " fill="#191919"/>
<path class="atom-3" d="M 220.9 77.7 L 222.5 77.7 L 222.5 72.4 L 220.7 72.9 L 220.5 72.3 L 222.7 71.3 L 223.4 71.5 L 223.4 77.7 L 224.8 77.7 L 224.8 78.5 L 220.9 78.5 L 220.9 77.7 " fill="#191919"/>
<path class="atom-5" d="M 209.4 124.4 L 210.5 123.3 L 209.1 123.1 L 209.3 122.3 L 210.6 123.0 L 210.4 121.6 L 211.2 121.6 L 211.0 123.0 L 212.3 122.4 L 212.5 123.1 L 211.1 123.3 L 212.1 124.4 L 211.5 124.8 L 210.8 123.5 L 210.1 124.8 L 209.4 124.4 " fill="#191919"/>
<path class="atom-5" d="M 212.8 127.7 L 213.8 127.7 L 213.8 128.7 L 212.8 128.7 L 212.8 127.7 M 212.8 124.2 L 213.8 124.2 L 213.8 125.2 L 212.8 125.2 L 212.8 124.2 " fill="#191919"/>
<path class="atom-5" d="M 214.6 123.0 Q 214.8 122.4, 215.5 122.0 Q 216.1 121.6, 217.0 121.6 Q 218.1 121.6, 218.7 122.2 Q 219.3 122.8, 219.3 123.8 Q 219.3 124.9, 218.5 125.9 Q 217.7 126.9, 216.1 128.0 L 219.4 128.0 L 219.4 128.9 L 214.6 128.9 L 214.6 128.2 Q 215.9 127.2, 216.7 126.5 Q 217.5 125.8, 217.9 125.2 Q 218.3 124.5, 218.3 123.9 Q 218.3 123.2, 217.9 122.8 Q 217.6 122.4, 217.0 122.4 Q 216.4 122.4, 216.0 122.6 Q 215.6 122.9, 215.3 123.4 L 214.6 123.0 " fill="#191919"/>
<path class="atom-7" d="M 256.1 151.7 L 258.5 155.5 Q 258.7 155.9, 259.1 156.6 Q 259.4 157.2, 259.5 157.3 L 259.5 151.7 L 260.4 151.7 L 260.4 158.9 L 259.4 158.9 L 256.9 154.7 Q 256.6 154.2, 256.3 153.7 Q 256.0 153.1, 255.9 153.0 L 255.9 158.9 L 255.0 158.9 L 255.0 151.7 L 256.1 151.7 " fill="#0000FF"/>
<path class="atom-17" d="M 374.1 144.6 L 375.1 143.5 L 373.7 143.2 L 373.9 142.5 L 375.2 143.1 L 375.1 141.7 L 375.8 141.7 L 375.6 143.1 L 376.9 142.5 L 377.1 143.2 L 375.7 143.5 L 376.7 144.5 L 376.1 145.0 L 375.4 143.7 L 374.7 145.0 L 374.1 144.6 " fill="#191919"/>
<path class="atom-17" d="M 377.4 147.8 L 378.4 147.8 L 378.4 148.8 L 377.4 148.8 L 377.4 147.8 M 377.4 144.3 L 378.4 144.3 L 378.4 145.3 L 377.4 145.3 L 377.4 144.3 " fill="#191919"/>
<path class="atom-17" d="M 382.6 145.2 Q 383.3 145.4, 383.7 145.9 Q 384.0 146.3, 384.0 147.0 Q 384.0 147.6, 383.7 148.1 Q 383.4 148.6, 382.9 148.9 Q 382.3 149.1, 381.6 149.1 Q 380.8 149.1, 380.2 148.8 Q 379.7 148.6, 379.2 148.0 L 379.8 147.4 Q 380.2 147.9, 380.6 148.1 Q 381.0 148.3, 381.6 148.3 Q 382.2 148.3, 382.6 148.0 Q 383.0 147.6, 383.0 147.0 Q 383.0 146.3, 382.6 146.0 Q 382.2 145.6, 381.3 145.6 L 380.8 145.6 L 380.8 144.9 L 381.2 144.9 Q 382.0 144.9, 382.4 144.6 Q 382.9 144.2, 382.9 143.6 Q 382.9 143.1, 382.5 142.8 Q 382.2 142.6, 381.6 142.6 Q 381.0 142.6, 380.6 142.8 Q 380.2 143.0, 380.0 143.5 L 379.3 143.2 Q 379.5 142.6, 380.1 142.2 Q 380.7 141.8, 381.6 141.8 Q 382.6 141.8, 383.3 142.2 Q 383.9 142.7, 383.9 143.6 Q 383.9 144.2, 383.6 144.6 Q 383.2 145.0, 382.6 145.2 " fill="#191919"/>
<path class="atom-19" d="M 380.3 89.8 L 381.3 88.8 L 379.9 88.5 L 380.1 87.8 L 381.4 88.4 L 381.2 87.0 L 382.0 87.0 L 381.8 88.4 L 383.1 87.8 L 383.3 88.5 L 381.9 88.7 L 382.9 89.8 L 382.3 90.3 L 381.6 88.9 L 380.9 90.3 L 380.3 89.8 " fill="#191919"/>
<path class="atom-19" d="M 383.6 93.1 L 384.6 93.1 L 384.6 94.1 L 383.6 94.1 L 383.6 93.1 M 383.6 89.6 L 384.6 89.6 L 384.6 90.6 L 383.6 90.6 L 383.6 89.6 " fill="#191919"/>
<path class="atom-19" d="M 390.0 91.8 L 390.9 91.8 L 390.9 92.6 L 390.0 92.6 L 390.0 94.3 L 389.1 94.3 L 389.1 92.6 L 385.4 92.6 L 385.4 92.0 L 388.5 87.1 L 390.0 87.1 L 390.0 91.8 M 386.6 91.8 L 389.1 91.8 L 389.1 87.8 L 386.6 91.8 " fill="#191919"/>
<path class="legend" d="M 301.7 237.8 Q 302.7 238.1, 303.3 238.8 Q 303.8 239.4, 303.8 240.4 Q 303.8 242.0, 302.8 242.9 Q 301.8 243.8, 300.0 243.8 L 296.2 243.8 L 296.2 232.4 L 299.5 232.4 Q 301.4 232.4, 302.4 233.2 Q 303.4 234.0, 303.4 235.4 Q 303.4 237.1, 301.7 237.8 M 297.7 233.7 L 297.7 237.3 L 299.5 237.3 Q 300.6 237.3, 301.2 236.8 Q 301.8 236.3, 301.8 235.4 Q 301.8 233.7, 299.5 233.7 L 297.7 233.7 M 300.0 242.5 Q 301.1 242.5, 301.7 241.9 Q 302.2 241.4, 302.2 240.4 Q 302.2 239.5, 301.6 239.0 Q 301.0 238.5, 299.7 238.5 L 297.7 238.5 L 297.7 242.5 L 300.0 242.5 " fill="#000000"/>
</svg>