<?xml version="1.0" encoding="UTF-8" standalone="no"?>
<!DOCTYPE svg PUBLIC "-//W3C//DTD SVG 1.1//EN"
 "http://www.w3.org/Graphics/SVG/1.1/DTD/svg11.dtd">
<!-- Generated by graphviz version 2.50.0 (0)
 -->
<!-- Title: DFA Pages: 1 -->
<svg width="1041pt" height="297pt"
 viewBox="0.00 0.00 1041.00 297.00" xmlns="http://www.w3.org/2000/svg" xmlns:xlink="http://www.w3.org/1999/xlink">
<g id="graph0" class="graph" transform="scale(1 1) rotate(0) translate(4 293)">
<title>DFA</title>
<polygon fill="white" stroke="transparent" points="-4,4 -4,-293 1037,-293 1037,4 -4,4"/>
<!-- I -->
<!-- S0 -->
<g id="node2" class="node">
<title>S0</title>
<ellipse fill="red" stroke="red" cx="113" cy="-22" rx="18" ry="18"/>
<ellipse fill="none" stroke="red" cx="113" cy="-22" rx="22" ry="22"/>
</g>
<!-- I&#45;&gt;S0 -->
<g id="edge1" class="edge">
<title>I&#45;&gt;S0</title>
<path fill="none" stroke="darkgreen" stroke-width="4" d="M54.12,-22C62.54,-22 71.96,-22 80.72,-22"/>
<polygon fill="darkgreen" stroke="darkgreen" stroke-width="4" points="80.96,-25.5 90.96,-22 80.96,-18.5 80.96,-25.5"/>
</g>
<!-- S1 -->
<g id="node3" class="node">
<title>S1</title>
<ellipse fill="none" stroke="black" cx="199" cy="-72" rx="18" ry="18"/>
</g>
<!-- S0&#45;&gt;S1 -->
<g id="edge23" class="edge">
<title>S0&#45;&gt;S1</title>
<path fill="none" stroke="black" d="M132.23,-32.85C144.62,-40.22 161.12,-50.05 174.5,-58.01"/>
<polygon fill="black" stroke="black" points="172.78,-61.06 183.17,-63.17 176.36,-55.05 172.78,-61.06"/>
<text text-anchor="middle" x="158" y="-52.8" font-family="Times New Roman,serif" font-size="14.00">B</text>
</g>
<!-- S2 -->
<g id="node4" class="node">
<title>S2</title>
<ellipse fill="none" stroke="black" cx="279" cy="-143" rx="18" ry="18"/>
</g>
<!-- S1&#45;&gt;S2 -->
<g id="edge22" class="edge">
<title>S1&#45;&gt;S2</title>
<path fill="none" stroke="black" d="M212.88,-83.72C224.96,-94.72 243.23,-111.35 257.35,-124.2"/>
<polygon fill="black" stroke="black" points="255.35,-127.12 265.1,-131.26 260.06,-121.94 255.35,-127.12"/>
<text text-anchor="middle" x="239" y="-112.8" font-family="Times New Roman,serif" font-size="14.00">F</text>
</g>
<!-- S3 -->
<g id="node5" class="node">
<title>S3</title>
<ellipse fill="none" stroke="black" cx="361" cy="-143" rx="18" ry="18"/>
</g>
<!-- S2&#45;&gt;S3 -->
<g id="edge21" class="edge">
<title>S2&#45;&gt;S3</title>
<path fill="none" stroke="black" d="M297.36,-143C307.7,-143 321.06,-143 332.78,-143"/>
<polygon fill="black" stroke="black" points="332.95,-146.5 342.95,-143 332.95,-139.5 332.95,-146.5"/>
<text text-anchor="middle" x="320" y="-146.8" font-family="Times New Roman,serif" font-size="14.00">C</text>
</g>
<!-- S4 -->
<g id="node6" class="node">
<title>S4</title>
<ellipse fill="none" stroke="black" cx="443" cy="-143" rx="18" ry="18"/>
</g>
<!-- S3&#45;&gt;S4 -->
<g id="edge20" class="edge">
<title>S3&#45;&gt;S4</title>
<path fill="none" stroke="black" d="M379.36,-143C389.7,-143 403.06,-143 414.78,-143"/>
<polygon fill="black" stroke="black" points="414.95,-146.5 424.95,-143 414.95,-139.5 414.95,-146.5"/>
<text text-anchor="middle" x="402" y="-146.8" font-family="Times New Roman,serif" font-size="14.00">G</text>
</g>
<!-- S5 -->
<g id="node7" class="node">
<title>S5</title>
<ellipse fill="none" stroke="black" cx="525" cy="-143" rx="18" ry="18"/>
</g>
<!-- S4&#45;&gt;S5 -->
<g id="edge19" class="edge">
<title>S4&#45;&gt;S5</title>
<path fill="none" stroke="black" d="M461.36,-143C471.7,-143 485.06,-143 496.78,-143"/>
<polygon fill="black" stroke="black" points="496.95,-146.5 506.95,-143 496.95,-139.5 496.95,-146.5"/>
<text text-anchor="middle" x="484" y="-146.8" font-family="Times New Roman,serif" font-size="14.00">D</text>
</g>
<!-- S6 -->
<g id="node8" class="node">
<title>S6</title>
<ellipse fill="none" stroke="black" cx="607" cy="-143" rx="18" ry="18"/>
</g>
<!-- S5&#45;&gt;S6 -->
<g id="edge18" class="edge">
<title>S5&#45;&gt;S6</title>
<path fill="none" stroke="black" d="M543.36,-143C553.7,-143 567.06,-143 578.78,-143"/>
<polygon fill="black" stroke="black" points="578.95,-146.5 588.95,-143 578.95,-139.5 578.95,-146.5"/>
<text text-anchor="middle" x="566" y="-146.8" font-family="Times New Roman,serif" font-size="14.00">G</text>
</g>
<!-- S7 -->
<g id="node9" class="node">
<title>S7</title>
<ellipse fill="none" stroke="black" cx="689" cy="-143" rx="18" ry="18"/>
</g>
<!-- S6&#45;&gt;S7 -->
<g id="edge17" class="edge">
<title>S6&#45;&gt;S7</title>
<path fill="none" stroke="black" d="M625.36,-143C635.7,-143 649.06,-143 660.78,-143"/>
<polygon fill="black" stroke="black" points="660.95,-146.5 670.95,-143 660.95,-139.5 660.95,-146.5"/>
<text text-anchor="middle" x="648" y="-146.8" font-family="Times New Roman,serif" font-size="14.00">C</text>
</g>
<!-- S8 -->
<g id="node10" class="node">
<title>S8</title>
<ellipse fill="none" stroke="black" cx="769" cy="-143" rx="18" ry="18"/>
</g>
<!-- S7&#45;&gt;S8 -->
<g id="edge16" class="edge">
<title>S7&#45;&gt;S8</title>
<path fill="none" stroke="black" d="M707.31,-143C717.11,-143 729.58,-143 740.67,-143"/>
<polygon fill="black" stroke="black" points="740.74,-146.5 750.74,-143 740.74,-139.5 740.74,-146.5"/>
<text text-anchor="middle" x="729" y="-146.8" font-family="Times New Roman,serif" font-size="14.00">F</text>
</g>
<!-- S9 -->
<g id="node11" class="node">
<title>S9</title>
<ellipse fill="none" stroke="black" cx="851" cy="-72" rx="18" ry="18"/>
</g>
<!-- S8&#45;&gt;S9 -->
<g id="edge5" class="edge">
<title>S8&#45;&gt;S9</title>
<path fill="none" stroke="black" d="M783.21,-131.28C795.79,-120.11 814.92,-103.14 829.48,-90.21"/>
<polygon fill="black" stroke="black" points="831.88,-92.76 837.04,-83.51 827.23,-87.53 831.88,-92.76"/>
<text text-anchor="middle" x="810" y="-114.8" font-family="Times New Roman,serif" font-size="14.00">C</text>
</g>
<!-- S12 -->
<g id="node14" class="node">
<title>S12</title>
<ellipse fill="none" stroke="black" cx="851" cy="-211" rx="18" ry="18"/>
</g>
<!-- S8&#45;&gt;S12 -->
<g id="edge10" class="edge">
<title>S8&#45;&gt;S12</title>
<path fill="none" stroke="black" d="M783.21,-154.23C795.6,-164.76 814.34,-180.69 828.82,-193"/>
<polygon fill="black" stroke="black" points="826.88,-195.94 836.77,-199.75 831.42,-190.61 826.88,-195.94"/>
<text text-anchor="middle" x="810" y="-184.8" font-family="Times New Roman,serif" font-size="14.00">B</text>
</g>
<!-- S15 -->
<g id="node17" class="node">
<title>S15</title>
<ellipse fill="none" stroke="black" cx="851" cy="-133" rx="18" ry="18"/>
</g>
<!-- S8&#45;&gt;S15 -->
<g id="edge15" class="edge">
<title>S8&#45;&gt;S15</title>
<path fill="none" stroke="black" d="M786.97,-140.88C797.47,-139.57 811.18,-137.85 823.13,-136.36"/>
<polygon fill="black" stroke="black" points="823.57,-139.83 833.06,-135.12 822.7,-132.89 823.57,-139.83"/>
<text text-anchor="middle" x="810" y="-141.8" font-family="Times New Roman,serif" font-size="14.00">A</text>
</g>
<!-- S10 -->
<g id="node12" class="node">
<title>S10</title>
<ellipse fill="none" stroke="black" cx="933" cy="-52" rx="18" ry="18"/>
</g>
<!-- S9&#45;&gt;S10 -->
<g id="edge4" class="edge">
<title>S9&#45;&gt;S10</title>
<path fill="none" stroke="black" d="M868.58,-67.86C879.3,-65.17 893.5,-61.63 905.74,-58.56"/>
<polygon fill="black" stroke="black" points="906.59,-61.96 915.45,-56.14 904.89,-55.17 906.59,-61.96"/>
<text text-anchor="middle" x="892" y="-66.8" font-family="Times New Roman,serif" font-size="14.00">D</text>
</g>
<!-- S11 -->
<g id="node13" class="node">
<title>S11</title>
<ellipse fill="none" stroke="black" cx="1015" cy="-29" rx="18" ry="18"/>
</g>
<!-- S10&#45;&gt;S11 -->
<g id="edge3" class="edge">
<title>S10&#45;&gt;S11</title>
<path fill="none" stroke="black" d="M950.58,-47.23C961.3,-44.15 975.5,-40.07 987.74,-36.55"/>
<polygon fill="black" stroke="black" points="988.8,-39.89 997.45,-33.76 986.87,-33.16 988.8,-39.89"/>
<text text-anchor="middle" x="974" y="-45.8" font-family="Times New Roman,serif" font-size="14.00">D</text>
</g>
<!-- S11&#45;&gt;S0 -->
<g id="edge2" class="edge">
<title>S11&#45;&gt;S0</title>
<path fill="none" stroke="black" d="M998.44,-21.72C982.59,-14.98 957.12,-6 934,-6 198,-6 198,-6 198,-6 179.85,-6 159.89,-9.65 143.98,-13.46"/>
<polygon fill="black" stroke="black" points="142.99,-10.1 134.16,-15.95 144.72,-16.88 142.99,-10.1"/>
<text text-anchor="middle" x="566" y="-9.8" font-family="Times New Roman,serif" font-size="14.00">C</text>
</g>
<!-- S13 -->
<g id="node15" class="node">
<title>S13</title>
<ellipse fill="none" stroke="black" cx="933" cy="-262" rx="18" ry="18"/>
</g>
<!-- S12&#45;&gt;S13 -->
<g id="edge9" class="edge">
<title>S12&#45;&gt;S13</title>
<path fill="none" stroke="black" d="M866.67,-220.35C878.4,-227.83 895.06,-238.45 908.63,-247.1"/>
<polygon fill="black" stroke="black" points="907.11,-250.28 917.42,-252.71 910.87,-244.38 907.11,-250.28"/>
<text text-anchor="middle" x="892" y="-242.8" font-family="Times New Roman,serif" font-size="14.00">A</text>
</g>
<!-- S13&#45;&gt;S2 -->
<g id="edge8" class="edge">
<title>S13&#45;&gt;S2</title>
<path fill="none" stroke="black" d="M915.25,-266C899.14,-269.49 874.05,-274 852,-274 360,-274 360,-274 360,-274 312.14,-274 292.05,-209.51 284.33,-171.03"/>
<polygon fill="black" stroke="black" points="287.73,-170.14 282.47,-160.94 280.84,-171.41 287.73,-170.14"/>
<text text-anchor="middle" x="607" y="-277.8" font-family="Times New Roman,serif" font-size="14.00">F</text>
</g>
<!-- S14 -->
<g id="node16" class="node">
<title>S14</title>
<ellipse fill="none" stroke="black" cx="1015" cy="-223" rx="18" ry="18"/>
</g>
<!-- S13&#45;&gt;S14 -->
<g id="edge7" class="edge">
<title>S13&#45;&gt;S14</title>
<path fill="none" stroke="black" d="M949.42,-254.48C960.71,-248.98 976.27,-241.4 989.28,-235.05"/>
<polygon fill="black" stroke="black" points="991.17,-238.02 998.62,-230.5 988.1,-231.73 991.17,-238.02"/>
<text text-anchor="middle" x="974" y="-247.8" font-family="Times New Roman,serif" font-size="14.00">E</text>
</g>
<!-- S14&#45;&gt;S12 -->
<g id="edge6" class="edge">
<title>S14&#45;&gt;S12</title>
<path fill="none" stroke="black" d="M996.71,-221.72C968.54,-219.63 912.51,-215.48 879.04,-213"/>
<polygon fill="black" stroke="black" points="879.26,-209.51 869.03,-212.26 878.74,-216.49 879.26,-209.51"/>
<text text-anchor="middle" x="933" y="-221.8" font-family="Times New Roman,serif" font-size="14.00">D</text>
</g>
<!-- S15&#45;&gt;S1 -->
<g id="edge11" class="edge">
<title>S15&#45;&gt;S1</title>
<path fill="none" stroke="black" d="M840.22,-118.54C826.73,-100.51 800.57,-72 770,-72 278,-72 278,-72 278,-72 261.11,-72 242.16,-72 227.17,-72"/>
<polygon fill="black" stroke="black" points="227.04,-68.5 217.04,-72 227.04,-75.5 227.04,-68.5"/>
<text text-anchor="middle" x="525" y="-75.8" font-family="Times New Roman,serif" font-size="14.00">B</text>
</g>
<!-- S16 -->
<g id="node18" class="node">
<title>S16</title>
<ellipse fill="none" stroke="black" cx="933" cy="-157" rx="18" ry="18"/>
</g>
<!-- S15&#45;&gt;S16 -->
<g id="edge14" class="edge">
<title>S15&#45;&gt;S16</title>
<path fill="none" stroke="black" d="M868.58,-137.97C879.3,-141.19 893.5,-145.45 905.74,-149.12"/>
<polygon fill="black" stroke="black" points="904.86,-152.51 915.45,-152.03 906.87,-145.81 904.86,-152.51"/>
<text text-anchor="middle" x="892" y="-149.8" font-family="Times New Roman,serif" font-size="14.00">D</text>
</g>
<!-- S17 -->
<g id="node19" class="node">
<title>S17</title>
<ellipse fill="none" stroke="black" cx="1015" cy="-144" rx="18" ry="18"/>
</g>
<!-- S16&#45;&gt;S17 -->
<g id="edge13" class="edge">
<title>S16&#45;&gt;S17</title>
<path fill="none" stroke="black" d="M950.97,-154.24C961.47,-152.54 975.18,-150.31 987.13,-148.37"/>
<polygon fill="black" stroke="black" points="987.75,-151.81 997.06,-146.75 986.63,-144.9 987.75,-151.81"/>
<text text-anchor="middle" x="974" y="-154.8" font-family="Times New Roman,serif" font-size="14.00">E</text>
</g>
<!-- S17&#45;&gt;S15 -->
<g id="edge12" class="edge">
<title>S17&#45;&gt;S15</title>
<path fill="none" stroke="black" d="M999.12,-134.91C986.74,-127.91 968.41,-118.81 951,-115 926.15,-109.56 897.54,-116.13 877.49,-122.81"/>
<polygon fill="black" stroke="black" points="876.09,-119.59 867.84,-126.25 878.44,-126.19 876.09,-119.59"/>
<text text-anchor="middle" x="933" y="-118.8" font-family="Times New Roman,serif" font-size="14.00">A</text>
</g>
</g>
</svg>
