<svg xmlns="http://www.w3.org/2000/svg" xmlns:rdkit="http://www.rdkit.org/xml" xmlns:xlink="http://www.w3.org/1999/xlink" version="1.1" baseProfile="full" xml:space="preserve" width="1200px" height="500px" viewBox="0 0 1200 500">
<!-- END OF HEADER -->
<rect style="opacity:1.0;fill:#FFFFFF;stroke:none" width="1200.0" height="500.0" x="0.0" y="0.0"> </rect>
<path class="bond-0 atom-0 atom-1" d="M 92.8,106.4 L 81.4,113.0" style="fill:none;fill-rule:evenodd;stroke:#FF0000;stroke-width:2.0px;stroke-linecap:butt;stroke-linejoin:miter;stroke-opacity:1"/>
<path class="bond-0 atom-0 atom-1" d="M 81.4,113.0 L 69.9,119.6" style="fill:none;fill-rule:evenodd;stroke:#191919;stroke-width:2.0px;stroke-linecap:butt;stroke-linejoin:miter;stroke-opacity:1"/>
<path class="bond-1 atom-0 atom-2" d="M 105.6,106.4 L 117.5,113.2" style="fill:none;fill-rule:evenodd;stroke:#FF0000;stroke-width:2.0px;stroke-linecap:butt;stroke-linejoin:miter;stroke-opacity:1"/>
<path class="bond-1 atom-0 atom-2" d="M 117.5,113.2 L 129.3,120.0" style="fill:none;fill-rule:evenodd;stroke:#191919;stroke-width:2.0px;stroke-linecap:butt;stroke-linejoin:miter;stroke-opacity:1"/>
<path class="atom-0" d="M 94.1 102.7 Q 94.1 100.0, 95.5 98.5 Q 96.8 97.0, 99.2 97.0 Q 101.7 97.0, 103.0 98.5 Q 104.3 100.0, 104.3 102.7 Q 104.3 105.4, 103.0 106.9 Q 101.7 108.5, 99.2 108.5 Q 96.8 108.5, 95.5 106.9 Q 94.1 105.4, 94.1 102.7 M 99.2 107.2 Q 100.9 107.2, 101.9 106.1 Q 102.8 104.9, 102.8 102.7 Q 102.8 100.5, 101.9 99.4 Q 100.9 98.3, 99.2 98.3 Q 97.6 98.3, 96.6 99.4 Q 95.7 100.5, 95.7 102.7 Q 95.7 104.9, 96.6 106.1 Q 97.6 107.2, 99.2 107.2 " fill="#FF0000"/>
<path class="atom-1" d="M 53.9 121.1 L 55.6 119.4 L 53.4 119.0 L 53.7 117.8 L 55.7 118.8 L 55.5 116.7 L 56.6 116.6 L 56.3 118.8 L 58.3 117.9 L 58.7 119.0 L 56.5 119.4 L 58.0 121.0 L 57.1 121.7 L 56.0 119.7 L 54.9 121.7 L 53.9 121.1 " fill="#191919"/>
<path class="atom-1" d="M 59.1 126.1 L 60.7 126.1 L 60.7 127.7 L 59.1 127.7 L 59.1 126.1 M 59.1 120.7 L 60.7 120.7 L 60.7 122.3 L 59.1 122.3 L 59.1 120.7 " fill="#191919"/>
<path class="atom-1" d="M 62.5 126.7 L 64.9 126.7 L 64.9 118.4 L 62.3 119.2 L 61.9 118.3 L 65.3 116.8 L 66.4 117.0 L 66.4 126.7 L 68.6 126.7 L 68.6 128.0 L 62.5 128.0 L 62.5 126.7 " fill="#191919"/>
<path class="atom-2" d="M 131.1 121.1 L 132.8 119.4 L 130.6 119.0 L 130.9 117.8 L 132.9 118.8 L 132.7 116.7 L 133.8 116.6 L 133.5 118.8 L 135.5 117.9 L 135.9 119.0 L 133.7 119.4 L 135.2 121.0 L 134.3 121.7 L 133.2 119.7 L 132.1 121.7 L 131.1 121.1 " fill="#191919"/>
<path class="atom-2" d="M 136.3 126.1 L 137.9 126.1 L 137.9 127.7 L 136.3 127.7 L 136.3 126.1 M 136.3 120.7 L 137.9 120.7 L 137.9 122.3 L 136.3 122.3 L 136.3 120.7 " fill="#191919"/>
<path class="atom-2" d="M 139.1 118.9 Q 139.5 117.9, 140.5 117.3 Q 141.5 116.7, 142.8 116.7 Q 144.5 116.7, 145.5 117.6 Q 146.4 118.5, 146.4 120.1 Q 146.4 121.8, 145.2 123.3 Q 144.0 124.9, 141.5 126.7 L 146.6 126.7 L 146.6 128.0 L 139.1 128.0 L 139.1 126.9 Q 141.2 125.4, 142.4 124.3 Q 143.6 123.2, 144.2 122.2 Q 144.8 121.2, 144.8 120.2 Q 144.8 119.2, 144.3 118.6 Q 143.8 118.0, 142.8 118.0 Q 141.9 118.0, 141.3 118.3 Q 140.7 118.7, 140.3 119.5 L 139.1 118.9 " fill="#191919"/>
<path class="legend" d="M 103.4 243.8 L 102.2 240.4 L 97.8 240.4 L 96.6 243.8 L 95.1 243.8 L 99.0 232.4 L 100.9 232.4 L 104.9 243.8 L 103.4 243.8 M 98.2 239.1 L 101.8 239.1 L 100.0 234.0 L 98.2 239.1 " fill="#000000"/>
<path class="bond-0 atom-0 atom-1" d="M 284.3,112.5 L 314.9,112.5" style="fill:none;fill-rule:evenodd;stroke:#191919;stroke-width:2.0px;stroke-linecap:butt;stroke-linejoin:miter;stroke-opacity:1"/>
<path class="atom-0" d="M 268.3 111.3 L 270.0 109.6 L 267.8 109.2 L 268.1 108.0 L 270.1 109.0 L 269.8 106.9 L 271.0 106.8 L 270.7 109.0 L 272.7 108.1 L 273.0 109.2 L 270.8 109.6 L 272.4 111.2 L 271.5 111.9 L 270.4 109.9 L 269.3 111.9 L 268.3 111.3 " fill="#191919"/>
<path class="atom-0" d="M 273.5 116.3 L 275.1 116.3 L 275.1 117.9 L 273.5 117.9 L 273.5 116.3 M 273.5 110.9 L 275.1 110.9 L 275.1 112.5 L 273.5 112.5 L 273.5 110.9 " fill="#191919"/>
<path class="atom-0" d="M 276.9 116.9 L 279.3 116.9 L 279.3 108.6 L 276.6 109.4 L 276.3 108.5 L 279.7 107.0 L 280.8 107.2 L 280.8 116.9 L 283.0 116.9 L 283.0 118.2 L 276.9 118.2 L 276.9 116.9 " fill="#191919"/>
<path class="atom-1" d="M 316.8 111.3 L 318.4 109.6 L 316.2 109.2 L 316.6 108.0 L 318.6 109.0 L 318.3 106.9 L 319.5 106.8 L 319.1 109.0 L 321.2 108.1 L 321.5 109.2 L 319.3 109.6 L 320.9 111.2 L 319.9 111.9 L 318.8 109.9 L 317.7 111.9 L 316.8 111.3 " fill="#191919"/>
<path class="atom-1" d="M 322.0 116.3 L 323.5 116.3 L 323.5 117.9 L 322.0 117.9 L 322.0 116.3 M 322.0 110.9 L 323.5 110.9 L 323.5 112.5 L 322.0 112.5 L 322.0 110.9 " fill="#191919"/>
<path class="atom-1" d="M 324.8 109.1 Q 325.2 108.1, 326.1 107.5 Q 327.1 106.9, 328.5 106.9 Q 330.1 106.9, 331.1 107.8 Q 332.0 108.7, 332.0 110.3 Q 332.0 112.0, 330.8 113.5 Q 329.6 115.1, 327.1 116.9 L 332.2 116.9 L 332.2 118.2 L 324.7 118.2 L 324.7 117.1 Q 326.8 115.6, 328.0 114.5 Q 329.3 113.4, 329.9 112.4 Q 330.5 111.4, 330.5 110.4 Q 330.5 109.4, 329.9 108.8 Q 329.4 108.2, 328.5 108.2 Q 327.6 108.2, 327.0 108.5 Q 326.4 108.9, 326.0 109.7 L 324.8 109.1 " fill="#191919"/>
<path class="legend" d="M 301.7 237.8 Q 302.7 238.1, 303.3 238.8 Q 303.8 239.4, 303.8 240.4 Q 303.8 242.0, 302.8 242.9 Q 301.8 243.8, 300.0 243.8 L 296.2 243.8 L 296.2 232.4 L 299.5 232.4 Q 301.4 232.4, 302.4 233.2 Q 303.4 234.0, 303.4 235.4 Q 303.4 237.1, 301.7 237.8 M 297.7 233.7 L 297.7 237.3 L 299.5 237.3 Q 300.6 237.3, 301.2 236.8 Q 301.8 236.3, 301.8 235.4 Q 301.8 233.7, 299.5 233.7 L 297.7 233.7 M 300.0 242.5 Q 301.1 242.5, 301.7 241.9 Q 302.2 241.4, 302.2 240.4 Q 302.2 239.5, 301.6 239.0 Q 301.0 238.5, 299.7 238.5 L 297.7 238.5 L 297.7 242.5 L 300.0 242.5 " fill="#000000"/>
<path class="bond-0 atom-0 atom-1" d="M 493.7,111.9 L 481.8,118.8" style="fill:none;fill-rule:evenodd;stroke:#0000FF;stroke-width:2.0px;stroke-linecap:butt;stroke-linejoin:miter;stroke-opacity:1"/>
<path class="bond-0 atom-0 atom-1" d="M 481.8,118.8 L 469.9,125.7" style="fill:none;fill-rule:evenodd;stroke:#191919;stroke-width:2.0px;stroke-linecap:butt;stroke-linejoin:miter;stroke-opacity:1"/>
<path class="bond-1 atom-0 atom-2" d="M 504.8,111.9 L 517.0,119.0" style="fill:none;fill-rule:evenodd;stroke:#0000FF;stroke-width:2.0px;stroke-linecap:butt;stroke-linejoin:miter;stroke-opacity:1"/>
<path class="bond-1 atom-0 atom-2" d="M 517.0,119.0 L 529.3,126.1" style="fill:none;fill-rule:evenodd;stroke:#191919;stroke-width:2.0px;stroke-linecap:butt;stroke-linejoin:miter;stroke-opacity:1"/>
<path class="atom-0" d="M 496.8 103.2 L 500.4 109.1 Q 500.8 109.7, 501.4 110.7 Q 502.0 111.8, 502.0 111.8 L 502.0 103.2 L 503.5 103.2 L 503.5 114.3 L 501.9 114.3 L 498.0 107.9 Q 497.6 107.1, 497.1 106.3 Q 496.6 105.4, 496.5 105.1 L 496.5 114.3 L 495.0 114.3 L 495.0 103.2 L 496.8 103.2 " fill="#0000FF"/>
<path class="atom-0" d="M 494.9 91.0 L 496.4 91.0 L 496.4 95.7 L 502.1 95.7 L 502.1 91.0 L 503.6 91.0 L 503.6 102.1 L 502.1 102.1 L 502.1 96.9 L 496.4 96.9 L 496.4 102.1 L 494.9 102.1 L 494.9 91.0 " fill="#0000FF"/>
<path class="atom-1" d="M 453.9 127.1 L 455.6 125.5 L 453.4 125.0 L 453.7 123.9 L 455.7 124.9 L 455.5 122.7 L 456.6 122.7 L 456.3 124.9 L 458.3 124.0 L 458.7 125.0 L 456.5 125.4 L 458.0 127.1 L 457.1 127.8 L 456.0 125.7 L 454.9 127.8 L 453.9 127.1 " fill="#191919"/>
<path class="atom-1" d="M 459.1 132.2 L 460.7 132.2 L 460.7 133.8 L 459.1 133.8 L 459.1 132.2 M 459.1 126.8 L 460.7 126.8 L 460.7 128.4 L 459.1 128.4 L 459.1 126.8 " fill="#191919"/>
<path class="atom-1" d="M 462.5 132.8 L 464.9 132.8 L 464.9 124.5 L 462.3 125.3 L 461.9 124.4 L 465.3 122.9 L 466.4 123.0 L 466.4 132.8 L 468.6 132.8 L 468.6 134.0 L 462.5 134.0 L 462.5 132.8 " fill="#191919"/>
<path class="atom-2" d="M 531.1 127.1 L 532.8 125.5 L 530.6 125.0 L 530.9 123.9 L 532.9 124.9 L 532.7 122.7 L 533.8 122.7 L 533.5 124.9 L 535.5 124.0 L 535.9 125.0 L 533.7 125.4 L 535.2 127.1 L 534.3 127.8 L 533.2 125.7 L 532.1 127.8 L 531.1 127.1 " fill="#191919"/>
<path class="atom-2" d="M 536.3 132.2 L 537.9 132.2 L 537.9 133.8 L 536.3 133.8 L 536.3 132.2 M 536.3 126.8 L 537.9 126.8 L 537.9 128.4 L 536.3 128.4 L 536.3 126.8 " fill="#191919"/>
<path class="atom-2" d="M 539.1 125.0 Q 539.5 124.0, 540.5 123.4 Q 541.5 122.8, 542.8 122.8 Q 544.5 122.8, 545.5 123.7 Q 546.4 124.6, 546.4 126.2 Q 546.4 127.9, 545.2 129.4 Q 544.0 131.0, 541.5 132.8 L 546.6 132.8 L 546.6 134.0 L 539.1 134.0 L 539.1 133.0 Q 541.2 131.5, 542.4 130.4 Q 543.6 129.3, 544.2 128.3 Q 544.8 127.3, 544.8 126.3 Q 544.8 125.2, 544.3 124.6 Q 543.8 124.0, 542.8 124.0 Q 541.9 124.0, 541.3 124.4 Q 540.7 124.8, 540.3 125.6 L 539.1 125.0 " fill="#191919"/>
<path class="legend" d="M 495.6 237.9 Q 495.6 235.1, 496.9 233.6 Q 498.3 232.2, 500.8 232.2 Q 503.1 232.2, 504.4 233.8 L 503.3 234.7 Q 502.4 233.5, 500.8 233.5 Q 499.1 233.5, 498.2 234.6 Q 497.3 235.8, 497.3 237.9 Q 497.3 240.2, 498.2 241.3 Q 499.1 242.5, 501.0 242.5 Q 502.2 242.5, 503.7 241.7 L 504.1 242.9 Q 503.5 243.3, 502.6 243.5 Q 501.7 243.8, 500.7 243.8 Q 498.3 243.8, 496.9 242.2 Q 495.6 240.7, 495.6 237.9 " fill="#000000"/>
<path class="bond-0 atom-0 atom-1" d="M 699.2,99.9 L 684.6,108.3" style="fill:none;fill-rule:evenodd;stroke:#000000;stroke-width:2.0px;stroke-linecap:butt;stroke-linejoin:miter;stroke-opacity:1"/>
<path class="bond-0 atom-0 atom-1" d="M 684.6,108.3 L 669.9,116.8" style="fill:none;fill-rule:evenodd;stroke:#191919;stroke-width:2.0px;stroke-linecap:butt;stroke-linejoin:miter;stroke-opacity:1"/>
<path class="bond-1 atom-0 atom-2" d="M 699.2,99.9 L 714.3,108.5" style="fill:none;fill-rule:evenodd;stroke:#000000;stroke-width:2.0px;stroke-linecap:butt;stroke-linejoin:miter;stroke-opacity:1"/>
<path class="bond-1 atom-0 atom-2" d="M 714.3,108.5 L 729.3,117.2" style="fill:none;fill-rule:evenodd;stroke:#191919;stroke-width:2.0px;stroke-linecap:butt;stroke-linejoin:miter;stroke-opacity:1"/>
<path class="atom-1" d="M 653.9 118.2 L 655.6 116.6 L 653.4 116.1 L 653.7 115.0 L 655.7 116.0 L 655.5 113.9 L 656.6 113.8 L 656.3 116.0 L 658.3 115.1 L 658.7 116.1 L 656.5 116.6 L 658.0 118.2 L 657.1 118.9 L 656.0 116.8 L 654.9 118.9 L 653.9 118.2 " fill="#191919"/>
<path class="atom-1" d="M 659.1 123.3 L 660.7 123.3 L 660.7 124.9 L 659.1 124.9 L 659.1 123.3 M 659.1 117.9 L 660.7 117.9 L 660.7 119.5 L 659.1 119.5 L 659.1 117.9 " fill="#191919"/>
<path class="atom-1" d="M 662.5 123.9 L 664.9 123.9 L 664.9 115.6 L 662.3 116.4 L 661.9 115.5 L 665.3 114.0 L 666.4 114.1 L 666.4 123.9 L 668.6 123.9 L 668.6 125.1 L 662.5 125.1 L 662.5 123.9 " fill="#191919"/>
<path class="atom-2" d="M 731.1 118.2 L 732.8 116.6 L 730.6 116.1 L 730.9 115.0 L 732.9 116.0 L 732.7 113.9 L 733.8 113.8 L 733.5 116.0 L 735.5 115.1 L 735.9 116.1 L 733.7 116.6 L 735.2 118.2 L 734.3 118.9 L 733.2 116.8 L 732.1 118.9 L 731.1 118.2 " fill="#191919"/>
<path class="atom-2" d="M 736.3 123.3 L 737.9 123.3 L 737.9 124.9 L 736.3 124.9 L 736.3 123.3 M 736.3 117.9 L 737.9 117.9 L 737.9 119.5 L 736.3 119.5 L 736.3 117.9 " fill="#191919"/>
<path class="atom-2" d="M 739.1 116.1 Q 739.5 115.1, 740.5 114.5 Q 741.5 113.9, 742.8 113.9 Q 744.5 113.9, 745.5 114.8 Q 746.4 115.7, 746.4 117.3 Q 746.4 119.0, 745.2 120.5 Q 744.0 122.1, 741.5 123.9 L 746.6 123.9 L 746.6 125.1 L 739.1 125.1 L 739.1 124.1 Q 741.2 122.6, 742.4 121.5 Q 743.6 120.4, 744.2 119.4 Q 744.8 118.4, 744.8 117.4 Q 744.8 116.3, 744.3 115.8 Q 743.8 115.2, 742.8 115.2 Q 741.9 115.2, 741.3 115.5 Q 740.7 115.9, 740.3 116.7 L 739.1 116.1 " fill="#191919"/>
<path class="legend" d="M 699.2 232.4 Q 701.7 232.4, 703.1 233.9 Q 704.4 235.4, 704.4 238.1 Q 704.4 240.7, 703.1 242.2 Q 701.7 243.8, 699.2 243.8 L 695.6 243.8 L 695.6 232.4 L 699.2 232.4 M 699.2 242.5 Q 701.0 242.5, 701.9 241.4 Q 702.8 240.3, 702.8 238.1 Q 702.8 235.9, 701.9 234.8 Q 701.0 233.7, 699.2 233.7 L 697.1 233.7 L 697.1 242.5 L 699.2 242.5 " fill="#000000"/>
<path class="bond-0 atom-0 atom-1" d="M 899.2,80.2 L 899.2,119.5" style="fill:none;fill-rule:evenodd;stroke:#000000;stroke-width:2.0px;stroke-linecap:butt;stroke-linejoin:miter;stroke-opacity:1"/>
<path class="bond-1 atom-1 atom-2" d="M 899.2,119.5 L 884.6,128.0" style="fill:none;fill-rule:evenodd;stroke:#000000;stroke-width:2.0px;stroke-linecap:butt;stroke-linejoin:miter;stroke-opacity:1"/>
<path class="bond-1 atom-1 atom-2" d="M 884.6,128.0 L 869.9,136.4" style="fill:none;fill-rule:evenodd;stroke:#191919;stroke-width:2.0px;stroke-linecap:butt;stroke-linejoin:miter;stroke-opacity:1"/>
<path class="bond-2 atom-1 atom-3" d="M 899.2,119.5 L 914.3,128.2" style="fill:none;fill-rule:evenodd;stroke:#000000;stroke-width:2.0px;stroke-linecap:butt;stroke-linejoin:miter;stroke-opacity:1"/>
<path class="bond-2 atom-1 atom-3" d="M 914.3,128.2 L 929.3,136.9" style="fill:none;fill-rule:evenodd;stroke:#191919;stroke-width:2.0px;stroke-linecap:butt;stroke-linejoin:miter;stroke-opacity:1"/>
<path class="atom-2" d="M 853.9 137.9 L 855.6 136.2 L 853.4 135.8 L 853.7 134.7 L 855.7 135.7 L 855.5 133.5 L 856.6 133.5 L 856.3 135.6 L 858.3 134.7 L 858.7 135.8 L 856.5 136.2 L 858.0 137.9 L 857.1 138.6 L 856.0 136.5 L 854.9 138.6 L 853.9 137.9 " fill="#191919"/>
<path class="atom-2" d="M 859.1 142.9 L 860.7 142.9 L 860.7 144.5 L 859.1 144.5 L 859.1 142.9 M 859.1 137.5 L 860.7 137.5 L 860.7 139.1 L 859.1 139.1 L 859.1 137.5 " fill="#191919"/>
<path class="atom-2" d="M 862.5 143.5 L 864.9 143.5 L 864.9 135.2 L 862.3 136.0 L 861.9 135.1 L 865.3 133.6 L 866.4 133.8 L 866.4 143.5 L 868.6 143.5 L 868.6 144.8 L 862.5 144.8 L 862.5 143.5 " fill="#191919"/>
<path class="atom-3" d="M 931.1 137.9 L 932.8 136.2 L 930.6 135.8 L 930.9 134.7 L 932.9 135.7 L 932.7 133.5 L 933.8 133.5 L 933.5 135.6 L 935.5 134.7 L 935.9 135.8 L 933.7 136.2 L 935.2 137.9 L 934.3 138.6 L 933.2 136.5 L 932.1 138.6 L 931.1 137.9 " fill="#191919"/>
<path class="atom-3" d="M 936.3 142.9 L 937.9 142.9 L 937.9 144.5 L 936.3 144.5 L 936.3 142.9 M 936.3 137.5 L 937.9 137.5 L 937.9 139.1 L 936.3 139.1 L 936.3 137.5 " fill="#191919"/>
<path class="atom-3" d="M 939.1 135.8 Q 939.5 134.7, 940.5 134.1 Q 941.5 133.5, 942.8 133.5 Q 944.5 133.5, 945.5 134.4 Q 946.4 135.3, 946.4 137.0 Q 946.4 138.6, 945.2 140.2 Q 944.0 141.7, 941.5 143.5 L 946.6 143.5 L 946.6 144.8 L 939.1 144.8 L 939.1 143.7 Q 941.2 142.2, 942.4 141.1 Q 943.6 140.0, 944.2 139.1 Q 944.8 138.1, 944.8 137.0 Q 944.8 136.0, 944.3 135.4 Q 943.8 134.8, 942.8 134.8 Q 941.9 134.8, 941.3 135.1 Q 940.7 135.5, 940.3 136.3 L 939.1 135.8 " fill="#191919"/>
<path class="legend" d="M 896.5 232.4 L 903.3 232.4 L 903.3 233.7 L 898.1 233.7 L 898.1 237.2 L 902.8 237.2 L 902.8 238.5 L 898.1 238.5 L 898.1 242.4 L 903.5 242.4 L 903.5 243.8 L 896.5 243.8 L 896.5 232.4 " fill="#000000"/>
<path class="bond-0 atom-0 atom-1" d="M 1103.2,90.1 L 1103.2,106.2" style="fill:none;fill-rule:evenodd;stroke:#FF0000;stroke-width:2.0px;stroke-linecap:butt;stroke-linejoin:miter;stroke-opacity:1"/>
<path class="bond-0 atom-0 atom-1" d="M 1103.2,106.2 L 1103.2,122.3" style="fill:none;fill-rule:evenodd;stroke:#000000;stroke-width:2.0px;stroke-linecap:butt;stroke-linejoin:miter;stroke-opacity:1"/>
<path class="bond-0 atom-0 atom-1" d="M 1095.3,90.1 L 1095.3,106.2" style="fill:none;fill-rule:evenodd;stroke:#FF0000;stroke-width:2.0px;stroke-linecap:butt;stroke-linejoin:miter;stroke-opacity:1"/>
<path class="bond-0 atom-0 atom-1" d="M 1095.3,106.2 L 1095.3,122.3" style="fill:none;fill-rule:evenodd;stroke:#000000;stroke-width:2.0px;stroke-linecap:butt;stroke-linejoin:miter;stroke-opacity:1"/>
<path class="bond-1 atom-1 atom-2" d="M 1099.2,122.3 L 1084.6,130.8" style="fill:none;fill-rule:evenodd;stroke:#000000;stroke-width:2.0px;stroke-linecap:butt;stroke-linejoin:miter;stroke-opacity:1"/>
<path class="bond-1 atom-1 atom-2" d="M 1084.6,130.8 L 1069.9,139.2" style="fill:none;fill-rule:evenodd;stroke:#191919;stroke-width:2.0px;stroke-linecap:butt;stroke-linejoin:miter;stroke-opacity:1"/>
<path class="bond-2 atom-1 atom-3" d="M 1099.2,122.3 L 1114.3,131.0" style="fill:none;fill-rule:evenodd;stroke:#000000;stroke-width:2.0px;stroke-linecap:butt;stroke-linejoin:miter;stroke-opacity:1"/>
<path class="bond-2 atom-1 atom-3" d="M 1114.3,131.0 L 1129.3,139.7" style="fill:none;fill-rule:evenodd;stroke:#191919;stroke-width:2.0px;stroke-linecap:butt;stroke-linejoin:miter;stroke-opacity:1"/>
<path class="atom-0" d="M 1094.1 83.1 Q 1094.1 80.4, 1095.5 78.9 Q 1096.8 77.4, 1099.2 77.4 Q 1101.7 77.4, 1103.0 78.9 Q 1104.3 80.4, 1104.3 83.1 Q 1104.3 85.8, 1103.0 87.3 Q 1101.7 88.8, 1099.2 88.8 Q 1096.8 88.8, 1095.5 87.3 Q 1094.1 85.8, 1094.1 83.1 M 1099.2 87.6 Q 1100.9 87.6, 1101.9 86.4 Q 1102.8 85.3, 1102.8 83.1 Q 1102.8 80.9, 1101.9 79.8 Q 1100.9 78.7, 1099.2 78.7 Q 1097.6 78.7, 1096.6 79.8 Q 1095.7 80.9, 1095.7 83.1 Q 1095.7 85.3, 1096.6 86.4 Q 1097.6 87.6, 1099.2 87.6 " fill="#FF0000"/>
<path class="atom-2" d="M 1053.9 140.7 L 1055.6 139.0 L 1053.4 138.6 L 1053.7 137.5 L 1055.7 138.5 L 1055.5 136.3 L 1056.6 136.3 L 1056.3 138.5 L 1058.3 137.5 L 1058.7 138.6 L 1056.5 139.0 L 1058.0 140.7 L 1057.1 141.4 L 1056.0 139.3 L 1054.9 141.4 L 1053.9 140.7 " fill="#191919"/>
<path class="atom-2" d="M 1059.1 145.7 L 1060.7 145.7 L 1060.7 147.3 L 1059.1 147.3 L 1059.1 145.7 M 1059.1 140.3 L 1060.7 140.3 L 1060.7 141.9 L 1059.1 141.9 L 1059.1 140.3 " fill="#191919"/>
<path class="atom-2" d="M 1062.5 146.3 L 1064.9 146.3 L 1064.9 138.0 L 1062.3 138.9 L 1061.9 137.9 L 1065.3 136.4 L 1066.4 136.6 L 1066.4 146.3 L 1068.6 146.3 L 1068.6 147.6 L 1062.5 147.6 L 1062.5 146.3 " fill="#191919"/>
<path class="atom-3" d="M 1131.1 140.7 L 1132.8 139.0 L 1130.6 138.6 L 1130.9 137.5 L 1132.9 138.5 L 1132.7 136.3 L 1133.8 136.3 L 1133.5 138.5 L 1135.5 137.5 L 1135.9 138.6 L 1133.7 139.0 L 1135.2 140.7 L 1134.3 141.4 L 1133.2 139.3 L 1132.1 141.4 L 1131.1 140.7 " fill="#191919"/>
<path class="atom-3" d="M 1136.3 145.7 L 1137.9 145.7 L 1137.9 147.3 L 1136.3 147.3 L 1136.3 145.7 M 1136.3 140.3 L 1137.9 140.3 L 1137.9 141.9 L 1136.3 141.9 L 1136.3 140.3 " fill="#191919"/>
<path class="atom-3" d="M 1139.1 138.6 Q 1139.5 137.5, 1140.5 136.9 Q 1141.5 136.3, 1142.8 136.3 Q 1144.5 136.3, 1145.5 137.2 Q 1146.4 138.2, 1146.4 139.8 Q 1146.4 141.4, 1145.2 143.0 Q 1144.0 144.5, 1141.5 146.3 L 1146.6 146.3 L 1146.6 147.6 L 1139.1 147.6 L 1139.1 146.5 Q 1141.2 145.1, 1142.4 144.0 Q 1143.6 142.9, 1144.2 141.9 Q 1144.8 140.9, 1144.8 139.9 Q 1144.8 138.8, 1144.3 138.2 Q 1143.8 137.6, 1142.8 137.6 Q 1141.9 137.6, 1141.3 138.0 Q 1140.7 138.3, 1140.3 139.1 L 1139.1 138.6 " fill="#191919"/>
<path class="legend" d="M 1096.6 232.4 L 1103.4 232.4 L 1103.4 233.7 L 1098.2 233.7 L 1098.2 237.2 L 1102.8 237.2 L 1102.8 238.5 L 1098.2 238.5 L 1098.2 243.8 L 1096.6 243.8 L 1096.6 232.4 " fill="#000000"/>
<path class="bond-0 atom-0 atom-1" d="M 119.5,396.5 L 80.2,396.5" style="fill:none;fill-rule:evenodd;stroke:#000000;stroke-width:2.0px;stroke-linecap:butt;stroke-linejoin:miter;stroke-opacity:1"/>
<path class="bond-0 atom-0 atom-1" d="M 113.6,388.6 L 86.1,388.6" style="fill:none;fill-rule:evenodd;stroke:#000000;stroke-width:2.0px;stroke-linecap:butt;stroke-linejoin:miter;stroke-opacity:1"/>
<path class="bond-1 atom-1 atom-2" d="M 80.2,396.5 L 60.6,362.5" style="fill:none;fill-rule:evenodd;stroke:#000000;stroke-width:2.0px;stroke-linecap:butt;stroke-linejoin:miter;stroke-opacity:1"/>
<path class="bond-2 atom-2 atom-3" d="M 60.6,362.5 L 43.5,362.5" style="fill:none;fill-rule:evenodd;stroke:#000000;stroke-width:2.0px;stroke-linecap:butt;stroke-linejoin:miter;stroke-opacity:1"/>
<path class="bond-2 atom-2 atom-3" d="M 43.5,362.5 L 26.4,362.5" style="fill:none;fill-rule:evenodd;stroke:#191919;stroke-width:2.0px;stroke-linecap:butt;stroke-linejoin:miter;stroke-opacity:1"/>
<path class="bond-3 atom-2 atom-4" d="M 60.6,362.5 L 80.2,328.5" style="fill:none;fill-rule:evenodd;stroke:#000000;stroke-width:2.0px;stroke-linecap:butt;stroke-linejoin:miter;stroke-opacity:1"/>
<path class="bond-3 atom-2 atom-4" d="M 70.3,361.3 L 84.1,337.5" style="fill:none;fill-rule:evenodd;stroke:#000000;stroke-width:2.0px;stroke-linecap:butt;stroke-linejoin:miter;stroke-opacity:1"/>
<path class="bond-4 atom-4 atom-5" d="M 80.2,328.5 L 119.5,328.5" style="fill:none;fill-rule:evenodd;stroke:#000000;stroke-width:2.0px;stroke-linecap:butt;stroke-linejoin:miter;stroke-opacity:1"/>
<path class="bond-5 atom-5 atom-6" d="M 119.5,328.5 L 139.1,362.5" style="fill:none;fill-rule:evenodd;stroke:#000000;stroke-width:2.0px;stroke-linecap:butt;stroke-linejoin:miter;stroke-opacity:1"/>
<path class="bond-5 atom-5 atom-6" d="M 115.6,337.5 L 129.4,361.3" style="fill:none;fill-rule:evenodd;stroke:#000000;stroke-width:2.0px;stroke-linecap:butt;stroke-linejoin:miter;stroke-opacity:1"/>
<path class="bond-6 atom-6 atom-7" d="M 139.1,362.5 L 156.8,362.5" style="fill:none;fill-rule:evenodd;stroke:#000000;stroke-width:2.0px;stroke-linecap:butt;stroke-linejoin:miter;stroke-opacity:1"/>
<path class="bond-6 atom-6 atom-7" d="M 156.8,362.5 L 174.4,362.5" style="fill:none;fill-rule:evenodd;stroke:#191919;stroke-width:2.0px;stroke-linecap:butt;stroke-linejoin:miter;stroke-opacity:1"/>
<path class="bond-7 atom-6 atom-0" d="M 139.1,362.5 L 119.5,396.5" style="fill:none;fill-rule:evenodd;stroke:#000000;stroke-width:2.0px;stroke-linecap:butt;stroke-linejoin:miter;stroke-opacity:1"/>
<path class="atom-3" d="M 9.6 361.3 L 11.3 359.6 L 9.1 359.2 L 9.4 358.0 L 11.4 359.0 L 11.1 356.9 L 12.3 356.8 L 12.0 359.0 L 14.0 358.1 L 14.4 359.2 L 12.2 359.6 L 13.7 361.2 L 12.8 361.9 L 11.7 359.9 L 10.6 361.9 L 9.6 361.3 " fill="#191919"/>
<path class="atom-3" d="M 14.8 366.3 L 16.4 366.3 L 16.4 367.9 L 14.8 367.9 L 14.8 366.3 M 14.8 360.9 L 16.4 360.9 L 16.4 362.5 L 14.8 362.5 L 14.8 360.9 " fill="#191919"/>
<path class="atom-3" d="M 17.6 359.1 Q 18.0 358.1, 19.0 357.5 Q 20.0 356.9, 21.3 356.9 Q 23.0 356.9, 23.9 357.8 Q 24.9 358.7, 24.9 360.3 Q 24.9 362.0, 23.6 363.5 Q 22.4 365.1, 19.9 366.9 L 25.1 366.9 L 25.1 368.2 L 17.6 368.2 L 17.6 367.1 Q 19.6 365.6, 20.9 364.5 Q 22.1 363.4, 22.7 362.4 Q 23.3 361.4, 23.3 360.4 Q 23.3 359.4, 22.8 358.8 Q 22.2 358.2, 21.3 358.2 Q 20.4 358.2, 19.8 358.5 Q 19.2 358.9, 18.8 359.7 L 17.6 359.1 " fill="#191919"/>
<path class="atom-7" d="M 176.3 361.3 L 177.9 359.6 L 175.7 359.2 L 176.1 358.0 L 178.0 359.0 L 177.8 356.9 L 178.9 356.8 L 178.6 359.0 L 180.6 358.1 L 181.0 359.2 L 178.8 359.6 L 180.4 361.2 L 179.4 361.9 L 178.3 359.9 L 177.2 361.9 L 176.3 361.3 " fill="#191919"/>
<path class="atom-7" d="M 181.5 366.3 L 183.0 366.3 L 183.0 367.9 L 181.5 367.9 L 181.5 366.3 M 181.5 360.9 L 183.0 360.9 L 183.0 362.5 L 181.5 362.5 L 181.5 360.9 " fill="#191919"/>
<path class="atom-7" d="M 184.8 366.9 L 187.3 366.9 L 187.3 358.6 L 184.6 359.4 L 184.2 358.5 L 187.6 357.0 L 188.7 357.2 L 188.7 366.9 L 190.9 366.9 L 190.9 368.2 L 184.8 368.2 L 184.8 366.9 " fill="#191919"/>
<path class="legend" d="M 104.6 488.1 L 104.6 492.8 Q 102.9 493.8, 100.6 493.8 Q 98.1 493.8, 96.8 492.2 Q 95.4 490.7, 95.4 487.9 Q 95.4 485.1, 96.8 483.6 Q 98.1 482.1, 100.6 482.1 Q 101.9 482.1, 102.9 482.6 Q 103.8 483.0, 104.5 483.8 L 103.5 484.7 Q 102.4 483.4, 100.6 483.4 Q 98.9 483.4, 98.0 484.6 Q 97.1 485.7, 97.1 487.9 Q 97.1 490.2, 98.0 491.3 Q 99.0 492.5, 100.8 492.5 Q 102.0 492.5, 103.0 492.1 L 103.0 488.1 L 104.6 488.1 " fill="#000000"/>
</svg>