<?xml version="1.0" encoding="UTF-8" standalone="no"?>
<!DOCTYPE svg PUBLIC "-//W3C//DTD SVG 1.1//EN"
 "http://www.w3.org/Graphics/SVG/1.1/DTD/svg11.dtd">
<!-- Generated by graphviz version 3.0.0 (0)
 -->
<!-- Title: DFA Pages: 1 -->
<svg width="143pt" height="118pt"
 viewBox="0.00 0.00 143.00 118.00" xmlns="http://www.w3.org/2000/svg" xmlns:xlink="http://www.w3.org/1999/xlink">
<g id="graph0" class="graph" transform="scale(1 1) rotate(0) translate(4 114)">
<title>DFA</title>
<polygon fill="white" stroke="transparent" points="-4,4 -4,-114 139,-114 139,4 -4,4"/>
<!-- I -->
<!-- S0 -->
<g id="node2" class="node">
<title>S0</title>
<ellipse fill="red" stroke="red" cx="113" cy="-22" rx="18" ry="18"/>
<ellipse fill="none" stroke="red" cx="113" cy="-22" rx="22" ry="22"/>
</g>
<!-- I&#45;&gt;S0 -->
<g id="edge1" class="edge">
<title>I&#45;&gt;S0</title>
<path fill="none" stroke="darkgreen" stroke-width="4" d="M54.12,-22C62.54,-22 71.96,-22 80.72,-22"/>
<polygon fill="darkgreen" stroke="darkgreen" stroke-width="4" points="80.96,-25.5 90.96,-22 80.96,-18.5 80.96,-25.5"/>
</g>
<!-- S0&#45;&gt;S0 -->
<g id="edge2" class="edge">
<title>S0&#45;&gt;S0</title>
<path fill="none" stroke="black" d="M109.31,-43.81C108.96,-53.56 110.19,-62 113,-62 114.76,-62 115.9,-58.7 116.42,-53.85"/>
<polygon fill="black" stroke="black" points="119.92,-53.9 116.69,-43.81 112.92,-53.71 119.92,-53.9"/>
<text text-anchor="middle" x="113" y="-65.8" font-family="Times New Roman,serif" font-size="14.00">B</text>
</g>
<!-- S0&#45;&gt;S0 -->
<g id="edge3" class="edge">
<title>S0&#45;&gt;S0</title>
<path fill="none" stroke="black" d="M106.69,-43.11C103.9,-61.1 106.01,-80 113,-80 118.68,-80 121.13,-67.52 120.36,-53.2"/>
<polygon fill="black" stroke="black" points="123.83,-52.7 119.31,-43.11 116.87,-53.42 123.83,-52.7"/>
<text text-anchor="middle" x="113" y="-83.8" font-family="Times New Roman,serif" font-size="14.00">A</text>
</g>
</g>
</svg>
