<?xml version="1.0" encoding="UTF-8" standalone="no"?>
<!DOCTYPE svg PUBLIC "-//W3C//DTD SVG 1.1//EN"
 "http://www.w3.org/Graphics/SVG/1.1/DTD/svg11.dtd">
<!-- Generated by graphviz version 3.0.0 (0)
 -->
<!-- Pages: 1 -->
<svg width="472pt" height="277pt"
 viewBox="0.00 0.00 472.30 277.35" xmlns="http://www.w3.org/2000/svg" xmlns:xlink="http://www.w3.org/1999/xlink">
<g id="graph0" class="graph" transform="scale(1 1) rotate(0) translate(4 273.35)">
<polygon fill="white" stroke="transparent" points="-4,4 -4,-273.35 468.3,-273.35 468.3,4 -4,4"/>
<!-- 2 -->
<g id="node1" class="node">
<title>2</title>
<ellipse fill="#80b1d3" stroke="#80b1d3" cx="221.35" cy="-227.63" rx="41.94" ry="41.94"/>
<text text-anchor="middle" x="221.35" y="-220.13" font-family="Times New Roman,serif" font-size="30.00">2 C</text>
</g>
<!-- 9 -->
<g id="node2" class="node">
<title>9</title>
<ellipse fill="none" stroke="black" cx="64.35" cy="-74.95" rx="64.19" ry="64.19"/>
<text text-anchor="middle" x="64.35" y="-67.45" font-family="Times New Roman,serif" font-size="30.00">9 [&gt;1]</text>
</g>
<!-- 2&#45;&#45;9 -->
<g id="edge1" class="edge">
<title>2&#45;&#45;9</title>
<path fill="none" stroke="black" d="M190.67,-199.3C174.6,-184.82 154.71,-166.61 137.35,-149.91 127.99,-140.9 118.12,-131.11 108.76,-121.69"/>
</g>
<!-- 15 -->
<g id="node3" class="node">
<title>15</title>
<ellipse fill="none" stroke="black" cx="221.35" cy="-74.95" rx="74.91" ry="74.91"/>
<text text-anchor="middle" x="221.35" y="-67.45" font-family="Times New Roman,serif" font-size="30.00">15 [&gt;1]</text>
</g>
<!-- 2&#45;&#45;15 -->
<g id="edge2" class="edge">
<title>2&#45;&#45;15</title>
<path fill="none" stroke="black" d="M221.35,-185.85C221.35,-174.78 221.35,-162.44 221.35,-150.15"/>
</g>
<!-- 22 -->
<g id="node4" class="node">
<title>22</title>
<ellipse fill="none" stroke="black" cx="389.35" cy="-74.95" rx="74.91" ry="74.91"/>
<text text-anchor="middle" x="389.35" y="-67.45" font-family="Times New Roman,serif" font-size="30.00">22 [&gt;1]</text>
</g>
<!-- 2&#45;&#45;22 -->
<g id="edge3" class="edge">
<title>2&#45;&#45;22</title>
<path fill="none" stroke="black" d="M252.16,-198.99C274.99,-178.52 306.72,-150.06 333.92,-125.66"/>
</g>
</g>
</svg>
