<?xml version="1.0" encoding="UTF-8" standalone="no"?>
<!DOCTYPE svg PUBLIC "-//W3C//DTD SVG 1.1//EN"
 "http://www.w3.org/Graphics/SVG/1.1/DTD/svg11.dtd">
<!-- Generated by graphviz version 3.0.0 (0)
 -->
<!-- Pages: 1 -->
<svg width="303pt" height="582pt"
 viewBox="0.00 0.00 302.72 581.84" xmlns="http://www.w3.org/2000/svg" xmlns:xlink="http://www.w3.org/1999/xlink">
<g id="graph0" class="graph" transform="scale(1 1) rotate(0) translate(4 577.84)">
<polygon fill="white" stroke="transparent" points="-4,4 -4,-577.84 298.72,-577.84 298.72,4 -4,4"/>
<!-- 3 -->
<g id="node1" class="node">
<title>3</title>
<ellipse fill="none" stroke="black" cx="97.72" cy="-509.49" rx="64.19" ry="64.19"/>
<text text-anchor="middle" x="97.72" y="-501.99" font-family="Times New Roman,serif" font-size="30.00">3 [&lt;1]</text>
</g>
<!-- 5 -->
<g id="node2" class="node">
<title>5</title>
<ellipse fill="#80b1d3" stroke="#80b1d3" cx="41.72" cy="-339.42" rx="41.94" ry="41.94"/>
<text text-anchor="middle" x="41.72" y="-331.92" font-family="Times New Roman,serif" font-size="30.00">5 C</text>
</g>
<!-- 3&#45;&#45;5 -->
<g id="edge1" class="edge">
<title>3&#45;&#45;5</title>
<path fill="none" stroke="black" d="M53.27,-462.66C45.25,-451.81 38.07,-439.71 33.72,-427.14 28.57,-412.29 28.93,-395.19 31.17,-380.12"/>
<text text-anchor="middle" x="91.22" y="-407.14" font-family="Times New Roman,serif" font-size="25.00">1_SINGLE</text>
</g>
<!-- 7 -->
<g id="node3" class="node">
<title>7</title>
<ellipse fill="#80b1d3" stroke="#80b1d3" cx="106.72" cy="-43.13" rx="43.27" ry="43.27"/>
<text text-anchor="middle" x="106.72" y="-35.63" font-family="Times New Roman,serif" font-size="30.00">7 O</text>
</g>
<!-- 3&#45;&#45;7 -->
<g id="edge2" class="edge">
<title>3&#45;&#45;7</title>
<path fill="none" stroke="black" d="M135.78,-457.16C141.11,-447.61 145.77,-437.4 148.72,-427.14 188.38,-289.23 191.79,-241.15 148.72,-104.27 145.62,-94.43 140.28,-84.79 134.43,-76.22"/>
<text text-anchor="middle" x="237.22" y="-259.71" font-family="Times New Roman,serif" font-size="25.00">2_SINGLE</text>
</g>
<!-- 6 -->
<g id="node4" class="node">
<title>6</title>
<ellipse fill="#80b1d3" stroke="#80b1d3" cx="50.72" cy="-191.99" rx="41.94" ry="41.94"/>
<text text-anchor="middle" x="50.72" y="-184.49" font-family="Times New Roman,serif" font-size="30.00">6 C</text>
</g>
<!-- 5&#45;&#45;6 -->
<g id="edge3" class="edge">
<title>5&#45;&#45;6</title>
<path fill="none" stroke="black" d="M44.25,-297.53C45.48,-277.61 46.96,-253.74 48.19,-233.83"/>
<text text-anchor="middle" x="92.22" y="-259.71" font-family="Times New Roman,serif" font-size="25.00">SINGLE</text>
</g>
<!-- 6&#45;&#45;7 -->
<g id="edge4" class="edge">
<title>6&#45;&#45;7</title>
<path fill="none" stroke="black" d="M50.3,-150.14C51.34,-135.26 53.94,-118.59 59.72,-104.27 63.88,-93.94 70.37,-83.92 77.22,-75.11"/>
<text text-anchor="middle" x="104.22" y="-112.27" font-family="Times New Roman,serif" font-size="25.00">SINGLE</text>
</g>
</g>
</svg>
