<?xml version="1.0" encoding="UTF-8" standalone="no"?>
<!DOCTYPE svg PUBLIC "-//W3C//DTD SVG 1.1//EN"
 "http://www.w3.org/Graphics/SVG/1.1/DTD/svg11.dtd">
<!-- Generated by graphviz version 3.0.0 (0)
 -->
<!-- Pages: 1 -->
<svg width="137pt" height="231pt"
 viewBox="0.00 0.00 136.69 230.68" xmlns="http://www.w3.org/2000/svg" xmlns:xlink="http://www.w3.org/1999/xlink">
<g id="graph0" class="graph" transform="scale(1 1) rotate(0) translate(4 226.68)">
<polygon fill="white" stroke="transparent" points="-4,4 -4,-226.68 132.69,-226.68 132.69,4 -4,4"/>
<!-- 3 -->
<g id="node1" class="node">
<title>3</title>
<ellipse fill="none" stroke="black" cx="64.35" cy="-158.33" rx="64.19" ry="64.19"/>
<text text-anchor="middle" x="64.35" y="-150.83" font-family="Times New Roman,serif" font-size="30.00">[&lt;1] 2</text>
</g>
<!-- 5 -->
<g id="node2" class="node">
<title>5</title>
<ellipse fill="#80b1d3" stroke="#80b1d3" cx="64.35" cy="-28.99" rx="28.98" ry="28.98"/>
<text text-anchor="middle" x="64.35" y="-21.49" font-family="Times New Roman,serif" font-size="30.00">1</text>
</g>
<!-- 3&#45;&gt;5 -->
<g id="edge1" class="edge">
<title>3&#45;&gt;5</title>
<path fill="none" stroke="black" d="M57.6,-94.03C57.59,-84.99 57.77,-75.94 58.13,-67.61"/>
<polygon fill="black" stroke="black" points="61.63,-67.67 58.68,-57.5 54.64,-67.29 61.63,-67.67"/>
</g>
<!-- 5&#45;&gt;3 -->
<g id="edge2" class="edge">
<title>5&#45;&gt;3</title>
<path fill="none" stroke="black" d="M70.02,-57.5C70.55,-65.43 70.89,-74.48 71.02,-83.82"/>
<polygon fill="black" stroke="black" points="67.53,-84.06 71.1,-94.03 74.53,-84.01 67.53,-84.06"/>
</g>
</g>
</svg>
